<svg width="27" height="28" viewBox="0 0 27 28" fill="none" xmlns="http://www.w3.org/2000/svg">
<path d="M2.84211 1.92105C2.84211 2.20211 2.75876 2.47686 2.60262 2.71055C2.44647 2.94424 2.22453 3.12638 1.96487 3.23393C1.7052 3.34149 1.41948 3.36963 1.14382 3.3148C0.868163 3.25997 0.614955 3.12463 0.416218 2.92589C0.21748 2.72715 0.0821374 2.47394 0.0273058 2.19829C-0.0275259 1.92263 0.000615715 1.6369 0.108172 1.37724C0.215728 1.11758 0.397868 0.895639 0.631559 0.739491C0.86525 0.583344 1.14 0.500001 1.42105 0.500001C1.79794 0.500001 2.15939 0.649719 2.42589 0.916218C2.69239 1.18272 2.84211 1.54417 2.84211 1.92105ZM13.5 0.500001C13.2189 0.500001 12.9442 0.583344 12.7105 0.739491C12.4768 0.895639 12.2947 1.11758 12.1871 1.37724C12.0796 1.6369 12.0514 1.92263 12.1063 2.19829C12.1611 2.47394 12.2964 2.72715 12.4952 2.92589C12.6939 3.12463 12.9471 3.25997 13.2228 3.3148C13.4984 3.36963 13.7841 3.34149 14.0438 3.23393C14.3035 3.12638 14.5254 2.94424 14.6816 2.71055C14.8377 2.47686 14.9211 2.20211 14.9211 1.92105C14.9211 1.54417 14.7713 1.18272 14.5048 0.916218C14.2383 0.649719 13.8769 0.500001 13.5 0.500001ZM25.5789 3.34211C25.86 3.34211 26.1347 3.25876 26.3684 3.10262C26.6021 2.94647 26.7843 2.72453 26.8918 2.46487C26.9994 2.2052 27.0275 1.91948 26.9727 1.64382C26.9179 1.36816 26.7825 1.11496 26.5838 0.916218C26.385 0.71748 26.1318 0.582137 25.8562 0.527306C25.5805 0.472474 25.2948 0.500616 25.0351 0.608172C24.7755 0.715728 24.5535 0.897868 24.3974 1.13156C24.2412 1.36525 24.1579 1.64 24.1579 1.92105C24.1579 2.29794 24.3076 2.65939 24.5741 2.92589C24.8406 3.19239 25.2021 3.34211 25.5789 3.34211ZM1.42105 12.5789C1.14 12.5789 0.86525 12.6623 0.631559 12.8184C0.397868 12.9746 0.215728 13.1965 0.108172 13.4562C0.000615715 13.7158 -0.0275259 14.0016 0.0273058 14.2772C0.0821374 14.5529 0.21748 14.8061 0.416218 15.0048C0.614955 15.2036 0.868163 15.3389 1.14382 15.3937C1.41948 15.4486 1.7052 15.4204 1.96487 15.3129C2.22453 15.2053 2.44647 15.0232 2.60262 14.7895C2.75876 14.5558 2.84211 14.2811 2.84211 14C2.84211 13.6231 2.69239 13.2617 2.42589 12.9952C2.15939 12.7287 1.79794 12.5789 1.42105 12.5789ZM13.5 12.5789C13.2189 12.5789 12.9442 12.6623 12.7105 12.8184C12.4768 12.9746 12.2947 13.1965 12.1871 13.4562C12.0796 13.7158 12.0514 14.0016 12.1063 14.2772C12.1611 14.5529 12.2964 14.8061 12.4952 15.0048C12.6939 15.2036 12.9471 15.3389 13.2228 15.3937C13.4984 15.4486 13.7841 15.4204 14.0438 15.3129C14.3035 15.2053 14.5254 15.0232 14.6816 14.7895C14.8377 14.5558 14.9211 14.2811 14.9211 14C14.9211 13.6231 14.7713 13.2617 14.5048 12.9952C14.2383 12.7287 13.8769 12.5789 13.5 12.5789ZM25.5789 12.5789C25.2979 12.5789 25.0231 12.6623 24.7894 12.8184C24.5558 12.9746 24.3736 13.1965 24.2661 13.4562C24.1585 13.7158 24.1304 14.0016 24.1852 14.2772C24.24 14.5529 24.3754 14.8061 24.5741 15.0048C24.7728 15.2036 25.0261 15.3389 25.3017 15.3937C25.5774 15.4486 25.8631 15.4204 26.1228 15.3129C26.3824 15.2053 26.6044 15.0232 26.7605 14.7895C26.9167 14.5558 27 14.2811 27 14C27 13.6231 26.8503 13.2617 26.5838 12.9952C26.3173 12.7287 25.9558 12.5789 25.5789 12.5789ZM1.42105 24.6579C1.14 24.6579 0.86525 24.7412 0.631559 24.8974C0.397868 25.0535 0.215728 25.2755 0.108172 25.5351C0.000615715 25.7948 -0.0275259 26.0805 0.0273058 26.3562C0.0821374 26.6318 0.21748 26.885 0.416218 27.0838C0.614955 27.2825 0.868163 27.4179 1.14382 27.4727C1.41948 27.5275 1.7052 27.4994 1.96487 27.3918C2.22453 27.2843 2.44647 27.1021 2.60262 26.8684C2.75876 26.6347 2.84211 26.36 2.84211 26.0789C2.84211 25.7021 2.69239 25.3406 2.42589 25.0741C2.15939 24.8076 1.79794 24.6579 1.42105 24.6579ZM13.5 24.6579C13.2189 24.6579 12.9442 24.7412 12.7105 24.8974C12.4768 25.0535 12.2947 25.2755 12.1871 25.5351C12.0796 25.7948 12.0514 26.0805 12.1063 26.3562C12.1611 26.6318 12.2964 26.885 12.4952 27.0838C12.6939 27.2825 12.9471 27.4179 13.2228 27.4727C13.4984 27.5275 13.7841 27.4994 14.0438 27.3918C14.3035 27.2843 14.5254 27.1021 14.6816 26.8684C14.8377 26.6347 14.9211 26.36 14.9211 26.0789C14.9211 25.7021 14.7713 25.3406 14.5048 25.0741C14.2383 24.8076 13.8769 24.6579 13.5 24.6579ZM25.5789 24.6579C25.2979 24.6579 25.0231 24.7412 24.7894 24.8974C24.5558 25.0535 24.3736 25.2755 24.2661 25.5351C24.1585 25.7948 24.1304 26.0805 24.1852 26.3562C24.24 26.6318 24.3754 26.885 24.5741 27.0838C24.7728 27.2825 25.0261 27.4179 25.3017 27.4727C25.5774 27.5275 25.8631 27.4994 26.1228 27.3918C26.3824 27.2843 26.6044 27.1021 26.7605 26.8684C26.9167 26.6347 27 26.36 27 26.0789C27 25.7021 26.8503 25.3406 26.5838 25.0741C26.3173 24.8076 25.9558 24.6579 25.5789 24.6579Z" fill="black"/>
</svg>
