<svg width="161" height="30" viewBox="0 0 161 30" fill="none" xmlns="http://www.w3.org/2000/svg">
<path d="M67.2687 24.1379C66.3847 24.1379 65.5779 23.9146 64.8486 23.468C64.1192 23.0213 63.5335 22.4296 63.0914 21.6926C62.6715 20.9557 62.4615 20.1517 62.4615 19.2808V11.8443H76.8831V9.83448H62.4615L64 4.70935H77.1484C78.0325 4.70935 78.8392 4.93267 79.5686 5.3793C80.2979 5.82594 80.8726 6.41773 81.2925 7.15467C81.7346 7.89162 81.9556 8.69556 81.9556 9.5665V18.8788V24.1379H67.2687ZM67.534 19.0128H76.8831V16.333H67.534V19.0128Z" fill="#444C62"/>
<path d="M84.576 24.1379V18.8788L96.1464 9.83448H84.576L86.5 4.70935H104.07V9.96847L92.4996 19.0128H103L104.07 24.1379H84.576Z" fill="#444C62"/>
<path d="M107.858 24.1379V4.97733C107.858 4.06173 108.079 3.23546 108.521 2.49852C108.963 1.73924 109.559 1.13628 110.311 0.689647C111.062 0.243014 111.88 0.0196972 112.764 0.0196972H126.788C127.694 0.0196972 128.512 0.243014 129.241 0.689647C129.993 1.13628 130.589 1.73924 131.032 2.49852C131.496 3.23546 131.728 4.06173 131.728 4.97733V24.1379H126.523V16.3665H112.996V24.1379H107.858ZM112.996 11.1409H126.523V5.24531H112.996V11.1409Z" fill="#444C62"/>
<path d="M105.935 28.3251H161V30H105.935V28.3251Z" fill="#444C62"/>
<path d="M4.50463 3.00494L5.70462 4.21739L8.84377 7.38916L4.50463 12.1079L2.56039e-05 7.38916L4.50463 3.00494Z" fill="#FFBB0D"/>
<path d="M18.5 4.5L19.3617 5.35608L21.7507 7.76988L17.246 12.3214L15.5557 7.38916L18.2924 4.70368L18.5 4.5Z" fill="#FFBB0D"/>
<path d="M12.5047 3.94851L12.5 4L15.9162 7.75348L11.4115 12.305L8 8.5L8.84377 7.38916L12.1465 4.32771L12.5047 3.94851Z" fill="#FFBB0D"/>
<path d="M23.6165 3.21838L25.3584 4.84345L28.1231 7.38916H24H19.1376L23.6165 3.21838Z" fill="#FFBB0D"/>
<path d="M20.8537 4.40068L25.3584 8.95217L20.8537 13.5037L16.349 8.95217L20.8537 4.40068Z" fill="#BD993B"/>
<path d="M0 21.3465C0 19.8048 1.23693 18.555 2.76276 18.555C4.28859 18.555 5.52552 19.8048 5.52552 21.3465C5.52552 22.8881 4.28859 24.1379 2.76276 24.1379C1.23693 24.1379 0 22.8881 0 21.3465Z" fill="#FF7A41"/>
<path d="M23.4835 21.3465C23.4835 19.8048 24.7204 18.555 26.2462 18.555C27.7721 18.555 29.009 19.8048 29.009 21.3465C29.009 22.8881 27.7721 24.1379 26.2462 24.1379C24.7204 24.1379 23.4835 22.8881 23.4835 21.3465Z" fill="#FF7A41"/>
<path d="M2.56039e-05 7.38916H8.84377H13.8138V18.555H0L2.56039e-05 7.38916Z" fill="#989898"/>
<path d="M13.8138 7.38916H29.009V18.555H13.8138V7.38916Z" fill="black"/>
<path fill-rule="evenodd" clip-rule="evenodd" d="M154.038 24.1379L147.54 16.2158L140.644 16.2325V24.1379H135.505V0.0531943H154.436C155.342 0.0531943 156.16 0.276511 156.889 0.723145C157.64 1.16978 158.237 1.77274 158.679 2.53201C159.143 3.29129 159.375 4.11756 159.375 5.01083V11.2414C159.375 12.1346 159.143 12.9609 158.679 13.7202C158.237 14.4795 157.64 15.0824 156.889 15.5291C156.16 15.9757 155.342 16.199 154.436 16.199L154.038 16.2L159.342 22.3626V24.1379H154.038ZM154.17 10.9734H140.644V5.24531H154.17V10.9734Z" fill="#444C62"/>
<path d="M18.7236 3.10215L20.158 4.55149L19.3617 5.35608L19.6349 5.63212L20.8537 4.40068L21.5699 5.12424L22.8821 3.90231L20.4312 1.39573L18.7236 3.10215Z" fill="#C8971B"/>
<path d="M10.5 2.5L12.1465 4.32771L12.5587 3.94851L14 2L12.5 0.5L10.5 2.5Z" fill="#C7B27C"/>
<path fill-rule="evenodd" clip-rule="evenodd" d="M15.5557 7.38916L12.5 4L13.8138 5.4572L16.349 2.82875L18.2924 4.70368L15.5557 7.38916Z" fill="#FFD467"/>
<path d="M12.5 4L15.5557 7.38916L18.2924 4.70368L16.349 2.82875L13.8138 5.4572L12.5 4Z" fill="#C8971B"/>
<path d="M12.1465 4.32771L12.5 4L13.8138 5.4572L16.349 2.82875L18.2924 4.70368L18.5 4.5L19.3617 5.35608L17.9229 3.90231L18.7236 3.10215L15.6533 0L14 2L12.5587 3.94851L12.1465 4.32771Z" fill="#B8953D"/>
<path fill-rule="evenodd" clip-rule="evenodd" d="M10.5 2.5L8.5 0.5L5 3.5L8.84377 7.38916L12.5 4L12.1465 4.32771L10.5 2.5ZM8.84377 7.38916L5.70462 4.21739L8.5 2L12.1465 4.32771L8.84377 7.38916Z" fill="#C8971B"/>
<path d="M12.1465 4.32771L8.5 2L5.70462 4.21739L8.84377 7.38916L12.1465 4.32771Z" fill="#E2C069"/>
<path d="M20.158 4.55149L18.7236 3.10215L17.9229 3.90231L19.3617 5.35608L20.158 4.55149Z" fill="#C7B27C"/>
<path d="M28.1231 7.38916H29.009L27 3.90231L25.3584 4.84345L28.1231 7.38916Z" fill="#C7B27C"/>
<path fill-rule="evenodd" clip-rule="evenodd" d="M58.0511 4.97733V9.4995C58.0511 9.78981 58.029 10.069 57.9848 10.3369C57.9627 10.5826 57.9075 10.8171 57.819 11.0404C58.1506 11.4647 58.4269 11.956 58.6479 12.5143C58.8689 13.0726 58.9794 13.6309 58.9794 14.1892V19.1803C58.9794 20.0736 58.7473 20.8998 58.2832 21.6591C57.8411 22.4184 57.2444 23.0213 56.4929 23.468C55.7636 23.9146 54.9458 24.1379 54.0396 24.1379H40.2479H37.6785L35.1091 21.3465V2.5V0.0196972H38H53.1445C56.0858 1.2047 57.1881 2.27445 58.0511 4.97733ZM53.7744 18.9123H40.2479V14.4906H53.7744V18.9123ZM52.8461 9.26502H40.2479V5.24531H52.8461V9.26502Z" fill="#444C62"/>
</svg>
