<svg width="158" height="56" viewBox="0 0 158 56" fill="none" xmlns="http://www.w3.org/2000/svg">
<path d="M80.9521 26.7421L78.8935 27.9251V27.9725L80.9521 29.1555V34.9289L78.2073 36.5143H69.7129V19.9512H78.2073L80.9521 21.5365V26.7421ZM72.079 29.0136V34.3847H78.5859V29.0136H72.079ZM72.079 22.0807V26.884H78.5859V22.0807H72.079Z" fill="black"/>
<path d="M86.8029 31.6637V34.574H91.5589V31.6637H86.8029ZM87.2525 36.6326L84.5078 35.0473V31.1904L87.2525 29.6051H91.5589V26.7421H85.6908V24.6835H91.1093L93.8541 26.2688V36.6326H93.2389L91.5589 35.6625L89.8789 36.6326H87.2525Z" fill="black"/>
<path d="M96.6972 34.9526L102.66 26.7894V26.7421H96.9338V24.6835H105.594V26.2452L99.6312 34.4084V34.4557H105.594V36.5143H96.6972V34.9526Z" fill="black"/>
<path d="M116.095 19.9512L122.011 36.5143H119.692L118.296 32.5865H110.961L109.565 36.5143H107.246L113.161 19.9512H116.095ZM114.605 22.2937L111.718 30.4569H117.539L114.652 22.2937H114.605Z" fill="black"/>
<path d="M130.554 29.9127H126.981V36.5143H124.615V19.9512H133.109L135.854 21.5365V28.3274L133.109 29.9127L136.919 36.5143H134.293L130.554 29.9127ZM126.981 22.0807V27.7832H133.488V22.0807H126.981Z" fill="black"/>
<path d="M107.524 41.0809C107.524 40.4145 108.064 39.8742 108.731 39.8742H136.793C137.46 39.8742 138 40.4145 138 41.0809C138 41.7474 137.46 42.2877 136.793 42.2877H108.731C108.064 42.2877 107.524 41.7474 107.524 41.0809Z" fill="black"/>
<path d="M50.5501 40.2799C50.5501 42.6302 52.4351 44.5355 54.7603 44.5355C57.0856 44.5355 58.9705 42.6302 58.9705 40.2799C58.9705 37.9295 57.0856 36.0242 54.7603 36.0242C52.4351 36.0242 50.5501 37.9295 50.5501 40.2799Z" fill="white"/>
<path d="M20.8755 40.2799C20.8755 42.6302 22.7605 44.5355 25.0857 44.5355C27.4109 44.5355 29.2959 42.6302 29.2959 40.2799C29.2959 37.9295 27.4109 36.0242 25.0857 36.0242C22.7605 36.0242 20.8755 37.9295 20.8755 40.2799Z" fill="white"/>
<path fill-rule="evenodd" clip-rule="evenodd" d="M39.409 12.5534L35.4125 17.4752L38.7087 22.5941L43.0519 22.5941L46.4146 17.567L39.409 12.5534ZM47.3886 16.1109L39.9754 10.8056C39.477 10.4489 38.787 10.5418 38.4006 11.0176L34.4149 15.926L31.4043 11.2508C30.9533 10.5503 29.9326 10.54 29.4675 11.2313L21.7865 22.6497C20.764 22.8791 20 23.7924 20 24.8842L20 34.8748C20 35.76 20.568 36.5125 21.3595 36.7878C20.5152 37.705 20 38.9335 20 40.2799C20 43.1048 22.2681 45.411 25.0857 45.411C27.9033 45.411 30.1714 43.1048 30.1714 40.2799C30.1714 38.9875 29.6967 37.8037 28.9119 36.8996H50.9341C50.1493 37.8037 49.6746 38.9875 49.6746 40.2799C49.6746 43.1048 51.9427 45.411 54.7603 45.411C57.5779 45.411 59.846 43.1048 59.846 40.2799C59.846 38.942 59.3373 37.7205 58.5025 36.8052C59.2822 36.5523 59.846 35.8199 59.846 34.9558V25.8357C59.846 24.0748 58.4418 22.6417 56.6921 22.5953L52.0103 13.8343C51.3872 12.6681 49.7458 12.587 49.0107 13.686L47.3886 16.1109ZM56.61 24.3451C56.6081 24.3451 56.6062 24.3451 56.6044 24.3451L22.2901 24.3451C21.9924 24.3451 21.751 24.5864 21.751 24.8842L21.751 34.8748C21.751 35.0261 21.8736 35.1487 22.0249 35.1487H57.9022C58.0087 35.1487 58.095 35.0623 58.095 34.9558V25.8357C58.095 25.0143 57.4307 24.3481 56.61 24.3451ZM54.7061 22.5941L45.1585 22.5941L50.4661 14.6595L54.7061 22.5941ZM25.0857 36.8996C26.9186 36.8996 28.4204 38.4041 28.4204 40.2799C28.4204 42.1556 26.9186 43.66 25.0857 43.66C23.2528 43.66 21.751 42.1556 21.751 40.2799C21.751 38.4041 23.2528 36.8996 25.0857 36.8996ZM23.9342 22.5941L36.6262 22.5941L30.4188 12.9543L23.9342 22.5941ZM54.7603 36.8996C52.9274 36.8996 51.4256 38.4041 51.4256 40.2799C51.4256 42.1556 52.9274 43.66 54.7603 43.66C56.5932 43.66 58.095 42.1556 58.095 40.2799C58.095 38.4041 56.5932 36.8996 54.7603 36.8996Z" fill="black"/>
</svg>