<svg width="188" height="55" viewBox="0 0 188 55" fill="none" xmlns="http://www.w3.org/2000/svg">
<path d="M70.9802 36.7114V18.0943H85.6928C86.2617 18.0943 86.7788 18.2322 87.2443 18.508C87.7269 18.7838 88.1062 19.163 88.382 19.6457C88.6578 20.1111 88.7957 20.6283 88.7957 21.1971V25.1532C88.7957 25.3946 88.7612 25.6359 88.6923 25.8772C88.6406 26.1013 88.563 26.3168 88.4596 26.5237C88.8388 27.0925 89.1232 27.5838 89.3128 27.9975C89.5025 28.4112 89.5973 28.8336 89.5973 29.2645V33.6085C89.5973 34.1774 89.4594 34.7031 89.1836 35.1858C88.9077 35.6512 88.5285 36.0218 88.0458 36.2976C87.5804 36.5735 87.0633 36.7114 86.4944 36.7114H70.9802ZM74.083 34.6169H86.4944C86.7702 34.6169 87.0029 34.5221 87.1926 34.3325C87.3994 34.1257 87.5028 33.8843 87.5028 33.6085V29.2645C87.5028 28.9887 87.3994 28.756 87.1926 28.5664C87.0029 28.3595 86.7702 28.2561 86.4944 28.2561H74.083C73.8072 28.2561 73.5659 28.3595 73.359 28.5664C73.1694 28.756 73.0746 28.9887 73.0746 29.2645V33.6085C73.0746 33.8843 73.1694 34.1257 73.359 34.3325C73.5659 34.5221 73.8072 34.6169 74.083 34.6169ZM74.083 26.1617H85.6928C85.9687 26.1617 86.2014 26.0669 86.391 25.8772C86.5806 25.6704 86.6754 25.4291 86.6754 25.1532V21.1971C86.6754 20.9213 86.5806 20.6886 86.391 20.499C86.2014 20.2921 85.9687 20.1887 85.6928 20.1887H74.083C73.8072 20.1887 73.5659 20.2921 73.359 20.499C73.1694 20.6886 73.0746 20.9213 73.0746 21.1971V25.1532C73.0746 25.4291 73.1694 25.6704 73.359 25.8772C73.5659 26.0669 73.8072 26.1617 74.083 26.1617Z" fill="black"/>
<path d="M95.4418 36.7114C94.8729 36.7114 94.3472 36.5735 93.8645 36.2976C93.3991 36.0046 93.0198 35.6254 92.7268 35.1599C92.451 34.6773 92.3131 34.1515 92.3131 33.5827V28.1527H105.448V24.843C105.448 24.5671 105.345 24.3344 105.138 24.1448C104.949 23.938 104.716 23.8345 104.44 23.8345H92.3131V21.7143H104.44C105.026 21.7143 105.552 21.8608 106.017 22.1538C106.5 22.4296 106.879 22.8089 107.155 23.2915C107.448 23.757 107.595 24.2741 107.595 24.843V36.7114H95.4418ZM95.4418 34.5911H105.448V30.2729H94.4333V33.5827C94.4333 33.8585 94.5282 34.0998 94.7178 34.3067C94.9246 34.4963 95.166 34.5911 95.4418 34.5911Z" fill="black"/>
<path d="M109.662 36.7114V33.8154L122.616 23.8345H109.662V21.7143H124.943V24.6102L111.989 34.5911H124.943V36.7114H109.662Z" fill="black"/>
<path d="M127.82 36.7114V21.1971C127.82 20.6283 127.958 20.1111 128.233 19.6457C128.509 19.163 128.88 18.7838 129.345 18.508C129.828 18.2322 130.354 18.0943 130.923 18.0943H143.334C143.903 18.0943 144.42 18.2322 144.885 18.508C145.368 18.7838 145.747 19.163 146.023 19.6457C146.299 20.1111 146.437 20.6283 146.437 21.1971V36.7114H144.342V29.9109H129.914V36.7114H127.82ZM129.914 27.8165H144.342V21.1971C144.342 20.9213 144.239 20.6886 144.032 20.499C143.842 20.2921 143.61 20.1887 143.334 20.1887H130.923C130.647 20.1887 130.405 20.2921 130.199 20.499C130.009 20.6886 129.914 20.9213 129.914 21.1971V27.8165Z" fill="black"/>
<path d="M165.104 36.7114L159.028 29.4714H161.768L167.871 36.6855V36.7114H165.104ZM149.383 36.7114V18.1201H164.897C165.466 18.1201 165.983 18.2666 166.449 18.5597C166.931 18.8355 167.31 19.2061 167.586 19.6715C167.862 20.137 168 20.6541 168 21.223V26.6788C168 27.2477 167.862 27.7648 167.586 28.2302C167.31 28.6957 166.931 29.0749 166.449 29.3679C165.983 29.6438 165.466 29.7817 164.897 29.7817H151.477V36.7114H149.383ZM152.486 27.6614H164.897C165.173 27.6614 165.406 27.5666 165.595 27.377C165.802 27.1873 165.906 26.9546 165.906 26.6788V21.223C165.906 20.9472 165.802 20.7144 165.595 20.5248C165.406 20.318 165.173 20.2145 164.897 20.2145H152.486C152.21 20.2145 151.969 20.318 151.762 20.5248C151.572 20.7144 151.477 20.9472 151.477 21.223V26.6788C151.477 26.9546 151.572 27.1873 151.762 27.377C151.969 27.5666 152.21 27.6614 152.486 27.6614Z" fill="black"/>
<path d="M127.645 41.8129C127.645 41.1568 128.177 40.6249 128.833 40.6249H166.547C167.203 40.6249 167.735 41.1568 167.735 41.8129C167.735 42.469 167.203 43.0009 166.547 43.0009H128.833C128.177 43.0009 127.645 42.469 127.645 41.8129Z" fill="black"/>
<path d="M50.0765 39.2305C50.0765 41.5445 51.9322 43.4202 54.2214 43.4202C56.5106 43.4202 58.3663 41.5445 58.3663 39.2305C58.3663 36.9166 56.5106 35.0408 54.2214 35.0408C51.9322 35.0408 50.0765 36.9166 50.0765 39.2305Z" fill="white"/>
<path d="M20.8619 39.2305C20.8619 41.5445 22.7177 43.4202 25.0068 43.4202C27.296 43.4202 29.1518 41.5445 29.1518 39.2305C29.1518 36.9166 27.296 35.0408 25.0068 35.0408C22.7177 35.0408 20.8619 36.9166 20.8619 39.2305Z" fill="white"/>
<path fill-rule="evenodd" clip-rule="evenodd" d="M39.1081 11.934L35.1735 16.7795L38.4187 21.819L42.6945 21.819L46.0051 16.8698L39.1081 11.934ZM46.964 15.4363L39.6657 10.2133C39.175 9.86208 38.4957 9.95352 38.1153 10.422L34.1914 15.2543L31.2275 10.6515C30.7834 9.96187 29.7786 9.9518 29.3208 10.6324L21.7588 21.8737C20.7522 22.0996 20 22.9987 20 24.0736L20 33.9093C20 34.7807 20.5592 35.5216 21.3384 35.7926C20.5072 36.6956 20 37.9051 20 39.2305C20 42.0117 22.2329 44.2821 25.0068 44.2821C27.7807 44.2821 30.0137 42.0117 30.0137 39.2305C30.0137 37.9582 29.5464 36.7928 28.7737 35.9027H50.4545C49.6819 36.7928 49.2146 37.9582 49.2146 39.2305C49.2146 42.0117 51.4475 44.2821 54.2214 44.2821C56.9953 44.2821 59.2282 42.0117 59.2282 39.2305C59.2282 37.9134 58.7274 36.7109 57.9055 35.8097C58.6732 35.5607 59.2282 34.8397 59.2282 33.9891V25.0104C59.2282 23.2767 57.8458 21.8659 56.1232 21.8201L51.5141 13.1949C50.9005 12.0469 49.2847 11.967 48.5609 13.049L46.964 15.4363ZM56.0424 23.5428C56.0405 23.5428 56.0387 23.5428 56.0369 23.5428L22.2546 23.5428C21.9615 23.5428 21.7238 23.7804 21.7238 24.0736L21.7238 33.9093C21.7238 34.0582 21.8445 34.1789 21.9935 34.1789H57.3146C57.4194 34.1789 57.5044 34.0939 57.5044 33.9891V25.0104C57.5044 24.2017 56.8503 23.5458 56.0424 23.5428ZM54.1681 21.819L44.7684 21.819L49.9937 14.0074L54.1681 21.819ZM25.0068 35.9027C26.8113 35.9027 28.2899 37.3839 28.2899 39.2305C28.2899 41.0772 26.8113 42.5583 25.0068 42.5583C23.2024 42.5583 21.7238 41.0772 21.7238 39.2305C21.7238 37.3839 23.2024 35.9027 25.0068 35.9027ZM23.8732 21.819L36.3684 21.819L30.2572 12.3287L23.8732 21.819ZM54.2214 35.9027C52.4169 35.9027 50.9384 37.3839 50.9384 39.2305C50.9384 41.0772 52.4169 42.5583 54.2214 42.5583C56.0259 42.5583 57.5044 41.0772 57.5044 39.2305C57.5044 37.3839 56.0259 35.9027 54.2214 35.9027Z" fill="black"/>
</svg>
