<svg width="161" height="30" viewBox="0 0 161 30" fill="none" xmlns="http://www.w3.org/2000/svg">
<path d="M35.1092 24.1379V0.0196972H53.1445C54.0286 0.0196972 54.8353 0.243014 55.5647 0.689647C56.3162 1.13628 56.9129 1.73924 57.355 2.49852C57.8191 3.23546 58.0512 4.06173 58.0512 4.97733V9.4995C58.0512 9.78981 58.0291 10.069 57.9849 10.3369C57.9628 10.5826 57.9075 10.8171 57.8191 11.0404C58.1507 11.4647 58.4269 11.956 58.6479 12.5143C58.869 13.0726 58.9795 13.6309 58.9795 14.1892V19.1803C58.9795 20.0736 58.7474 20.8998 58.2833 21.6591C57.8412 22.4184 57.2445 23.0213 56.493 23.468C55.7636 23.9146 54.9458 24.1379 54.0397 24.1379H35.1092ZM40.248 18.9123H53.7744V14.4906H40.248V18.9123ZM40.248 9.26502H52.8461V5.24531H40.248V9.26502Z" fill="white"/>
<path d="M67.2688 24.1379C66.3847 24.1379 65.578 23.9146 64.8486 23.468C64.1193 23.0213 63.5335 22.4296 63.0915 21.6926C62.6716 20.9557 62.4616 20.1517 62.4616 19.2808V11.8443H76.8832V9.83448H62.4616V4.70935H77.1484C78.0325 4.70935 78.8392 4.93267 79.5686 5.3793C80.298 5.82594 80.8726 6.41773 81.2926 7.15467C81.7346 7.89162 81.9556 8.69556 81.9556 9.5665V24.1379H67.2688ZM67.534 19.0128H76.8832V16.333H67.534V19.0128Z" fill="white"/>
<path d="M84.576 24.1379V18.8788L96.1465 9.83448H84.576V4.70935H104.07V9.96847L92.4996 19.0128H104.07V24.1379H84.576Z" fill="white"/>
<path d="M107.858 24.1379V4.97733C107.858 4.06173 108.079 3.23546 108.521 2.49852C108.963 1.73924 109.559 1.13628 110.311 0.689647C111.062 0.243014 111.88 0.0196972 112.764 0.0196972H126.788C127.694 0.0196972 128.512 0.243014 129.241 0.689647C129.993 1.13628 130.59 1.73924 131.032 2.49852C131.496 3.23546 131.728 4.06173 131.728 4.97733V24.1379H126.523V16.3665H112.996V24.1379H107.858ZM112.996 11.1409H126.523V5.24531H112.996V11.1409Z" fill="white"/>
<path d="M154.038 24.1379L147.109 15.797H153.839L159.342 22.3626V24.1379H154.038ZM135.505 24.1379V0.0531943H154.436C155.342 0.0531943 156.16 0.276511 156.889 0.723145C157.64 1.16978 158.237 1.77274 158.679 2.53201C159.143 3.29129 159.375 4.11756 159.375 5.01083V11.2414C159.375 12.1346 159.143 12.9609 158.679 13.7202C158.237 14.4795 157.64 15.0824 156.889 15.5291C156.16 15.9757 155.342 16.199 154.436 16.199L140.644 16.2325V24.1379H135.505ZM140.644 10.9734H154.17V5.24531H140.644V10.9734Z" fill="white"/>
<path d="M105.935 28.3251H161V30H105.935V28.3251Z" fill="white"/>
<path d="M9.28257 0L13.7873 4.55149L9.28257 9.10299L4.77787 4.55149L9.28257 0Z" fill="#C8971B"/>
<path d="M4.5047 3.00494L9.0094 7.55644L4.5047 12.1079L0 7.55644L4.5047 3.00494Z" fill="#FFBB0D"/>
<path d="M15.6534 0L20.1581 4.55149L15.6534 9.10299L11.1487 4.55149L15.6534 0Z" fill="#FFD467"/>
<path d="M17.2461 3.21838L21.7508 7.76988L17.2461 12.3214L12.7414 7.76988L17.2461 3.21838Z" fill="#FFBB0D"/>
<path d="M20.4312 1.39573L24.9359 5.94722L20.4312 10.4987L15.9265 5.94722L20.4312 1.39573Z" fill="#FFBB0D"/>
<path d="M11.4116 3.20199L15.9163 7.75348L11.4116 12.305L6.90691 7.75348L11.4116 3.20199Z" fill="#FFBB0D"/>
<path d="M23.6166 3.21838L28.1213 7.76988L23.6166 12.3214L19.1119 7.76988L23.6166 3.21838Z" fill="#FFBB0D"/>
<path d="M20.8538 4.40068L25.3585 8.95217L20.8538 13.5037L16.3491 8.95217L20.8538 4.40068Z" fill="#BD993B"/>
<path d="M6.59074e-05 21.3465C6.59074e-05 19.8048 1.237 18.555 2.76283 18.555C4.28866 18.555 5.52559 19.8048 5.52559 21.3465C5.52559 22.8881 4.28866 24.1379 2.76283 24.1379C1.237 24.1379 6.59074e-05 22.8881 6.59074e-05 21.3465Z" fill="#FF7A41"/>
<path d="M23.4835 21.3465C23.4835 19.8048 24.7205 18.555 26.2463 18.555C27.7721 18.555 29.0091 19.8048 29.0091 21.3465C29.0091 22.8881 27.7721 24.1379 26.2463 24.1379C24.7205 24.1379 23.4835 22.8881 23.4835 21.3465Z" fill="#FF7A41"/>
<path d="M6.59074e-05 7.38916H13.8139V18.555H6.59074e-05V7.38916Z" fill="#989898"/>
<path d="M13.8139 7.38916H29.0091V18.555H13.8139V7.38916Z" fill="black"/>
</svg>
