<svg width="6408" height="1472" viewBox="0 0 6408 1472" fill="none" xmlns="http://www.w3.org/2000/svg">
  <path d="M2188.49 1147V347.8H2820.08C2844.5 347.8 2866.7 353.72 2886.68 365.56C2907.4 377.4 2923.68 393.68 2935.52 414.4C2947.36 434.38 2953.28 456.58 2953.28 481V650.83C2953.28 661.19 2951.8 671.55 2948.84 681.91C2946.62 691.53 2943.29 700.78 2938.85 709.66C2955.13 734.08 2967.34 755.17 2975.48 772.93C2983.62 790.69 2987.69 808.82 2987.69 827.32V1013.8C2987.69 1038.22 2981.77 1060.79 2969.93 1081.51C2958.09 1101.49 2941.81 1117.4 2921.09 1129.24C2901.11 1141.08 2878.91 1147 2854.49 1147H2188.49ZM2321.69 1057.09H2854.49C2866.33 1057.09 2876.32 1053.02 2884.46 1044.88C2893.34 1036 2897.78 1025.64 2897.78 1013.8V827.32C2897.78 815.48 2893.34 805.49 2884.46 797.35C2876.32 788.47 2866.33 784.03 2854.49 784.03H2321.69C2309.85 784.03 2299.49 788.47 2290.61 797.35C2282.47 805.49 2278.4 815.48 2278.4 827.32V1013.8C2278.4 1025.64 2282.47 1036 2290.61 1044.88C2299.49 1053.02 2309.85 1057.09 2321.69 1057.09ZM2321.69 694.12H2820.08C2831.92 694.12 2841.91 690.05 2850.05 681.91C2858.19 673.03 2862.26 662.67 2862.26 650.83V481C2862.26 469.16 2858.19 459.17 2850.05 451.03C2841.91 442.15 2831.92 437.71 2820.08 437.71H2321.69C2309.85 437.71 2299.49 442.15 2290.61 451.03C2282.47 459.17 2278.4 469.16 2278.4 481V650.83C2278.4 662.67 2282.47 673.03 2290.61 681.91C2299.49 690.05 2309.85 694.12 2321.69 694.12ZM3238.58 1147C3214.16 1147 3191.59 1141.08 3170.87 1129.24C3150.89 1116.66 3134.61 1100.38 3122.03 1080.4C3110.19 1059.68 3104.27 1037.11 3104.27 1012.69V779.59H3668.15V637.51C3668.15 625.67 3663.71 615.68 3654.83 607.54C3646.69 598.66 3636.7 594.22 3624.86 594.22H3104.27V503.2H3624.86C3650.02 503.2 3672.59 509.49 3692.57 522.07C3713.29 533.91 3729.57 550.19 3741.41 570.91C3753.99 590.89 3760.28 613.09 3760.28 637.51V1147H3238.58ZM3238.58 1055.98H3668.15V870.61H3195.29V1012.69C3195.29 1024.53 3199.36 1034.89 3207.5 1043.77C3216.38 1051.91 3226.74 1055.98 3238.58 1055.98ZM3849.02 1147V1022.68L4405.13 594.22H3849.02V503.2H4505.03V627.52L3948.92 1055.98H4505.03V1147H3849.02ZM4628.51 1147V481C4628.51 456.58 4634.43 434.38 4646.27 414.4C4658.11 393.68 4674.02 377.4 4694 365.56C4714.72 353.72 4737.29 347.8 4761.71 347.8H5294.51C5318.93 347.8 5341.13 353.72 5361.11 365.56C5381.83 377.4 5398.11 393.68 5409.95 414.4C5421.79 434.38 5427.71 456.58 5427.71 481V1147H5337.8V855.07H4718.42V1147H4628.51ZM4718.42 765.16H5337.8V481C5337.8 469.16 5333.36 459.17 5324.48 451.03C5316.34 442.15 5306.35 437.71 5294.51 437.71H4761.71C4749.87 437.71 4739.51 442.15 4730.63 451.03C4722.49 459.17 4718.42 469.16 4718.42 481V765.16ZM6229.06 1147L5968.21 836.2H6085.87L6347.83 1145.89V1147H6229.06ZM5554.18 1147V348.91H6220.18C6244.6 348.91 6266.8 355.2 6286.78 367.78C6307.5 379.62 6323.78 395.53 6335.62 415.51C6347.46 435.49 6353.38 457.69 6353.38 482.11V716.32C6353.38 740.74 6347.46 762.94 6335.62 782.92C6323.78 802.9 6307.5 819.18 6286.78 831.76C6266.8 843.6 6244.6 849.52 6220.18 849.52H5644.09V1147H5554.18ZM5687.38 758.5H6220.18C6232.02 758.5 6242.01 754.43 6250.15 746.29C6259.03 738.15 6263.47 728.16 6263.47 716.32V482.11C6263.47 470.27 6259.03 460.28 6250.15 452.14C6242.01 443.26 6232.02 438.82 6220.18 438.82H5687.38C5675.54 438.82 5665.18 443.26 5656.3 452.14C5648.16 460.28 5644.09 470.27 5644.09 482.11V716.32C5644.09 728.16 5648.16 738.15 5656.3 746.29C5665.18 754.43 5675.54 758.5 5687.38 758.5Z" fill="black"/>
  <path d="M4621 1366C4621 1337.83 4643.83 1315 4672 1315H6291C6319.17 1315 6342 1337.83 6342 1366C6342 1394.17 6319.17 1417 6291 1417H4672C4643.83 1417 4621 1394.17 4621 1366Z" fill="black"/>
  <path d="M214.935 1075.29C313.206 1075.29 392.87 1155.81 392.87 1255.14C392.87 1354.48 313.206 1435 214.935 1435C116.664 1435 37 1354.48 37 1255.14C37 1155.81 116.664 1075.29 214.935 1075.29ZM214.935 1075.29H926.675M214.935 1075.29H85.5762M1469.07 1075.29C1567.34 1075.29 1647 1155.81 1647 1255.14C1647 1354.48 1567.34 1435 1469.07 1435C1370.79 1435 1291.13 1354.48 1291.13 1255.14C1291.13 1155.81 1370.79 1075.29 1469.07 1075.29ZM1469.07 1075.29H926.675M1469.07 1075.29H1601.85M926.675 1075.29H85.5762M926.675 1075.29H1601.85M85.5762 1075.29V1075.29C58.7483 1075.29 37.0001 1053.54 37.0002 1026.71L37.0015 604.481C37.0016 571.463 63.768 544.696 96.7862 544.696V544.696M1601.85 1075.29V1075.29C1626.79 1075.29 1647 1055.07 1647 1030.14V644.696C1647 589.468 1602.23 544.696 1547 544.696L994 544.696M96.7862 544.696L430.824 48.1269C435.637 40.9718 446.202 41.0777 450.87 48.328L770.5 544.696M96.7862 544.696H360.219L610.262 544.696H770.5M605.75 288.848L806.383 41.7653C810.382 36.8404 817.523 35.8791 822.682 39.5711L1171 288.848M770.5 544.696H873.695L994 544.696M994 544.696L1190.11 544.695L1440.15 544.695L1528.5 544.697L1320.21 154.919C1307.04 130.277 1272.36 128.562 1256.82 151.786L994 544.696Z" stroke="black" stroke-width="74"/>
  </svg>
  