<svg width="143" height="34" viewBox="0 0 143 34" fill="none" xmlns="http://www.w3.org/2000/svg">
<path d="M48.9276 26.0532V8.0541H63.152C63.7019 8.0541 64.2019 8.18742 64.6519 8.45408C65.1185 8.72073 65.4852 9.08738 65.7518 9.55403C66.0185 10.004 66.1518 10.504 66.1518 11.054V14.8788C66.1518 15.1121 66.1185 15.3454 66.0518 15.5787C66.0018 15.7954 65.9268 16.0037 65.8268 16.2037C66.1935 16.7537 66.4685 17.2287 66.6518 17.6286C66.8351 18.0286 66.9268 18.4369 66.9268 18.8536V23.0534C66.9268 23.6034 66.7935 24.1117 66.5268 24.5783C66.2602 25.0283 65.8935 25.3866 65.4269 25.6533C64.9769 25.9199 64.4769 26.0532 63.9269 26.0532H48.9276ZM50.4546 25.4949L64.9638 25.4427C65.2305 25.4427 65.4555 25.351 65.6388 25.1677C65.8388 24.9677 65.9388 24.7344 65.9388 24.4677V17.9336C65.9388 17.6669 65.8388 17.4419 65.6388 17.2586C65.4555 17.0586 65.2305 16.9586 64.9638 16.9586L50.4546 17.0109C50.1879 17.0109 49.9546 17.1109 49.7546 17.3109C49.5713 17.4942 49.4796 17.7192 49.4796 17.9858V24.52C49.4796 24.7866 49.5713 25.02 49.7546 25.22C49.9546 25.4033 50.1879 25.4949 50.4546 25.4949ZM50.4546 16.4141H64.6888C64.9555 16.4141 65.1805 16.3224 65.3638 16.1391C65.5471 15.9391 65.6388 15.7058 65.6388 15.4391V9.9682C65.6388 9.70155 65.5471 9.47656 65.3638 9.29323C65.1805 9.09324 64.9555 8.99325 64.6888 8.99325H50.4546C50.1879 8.99325 49.9546 9.09324 49.7546 9.29323C49.5713 9.47656 49.4796 9.70155 49.4796 9.9682V15.4391C49.4796 15.7058 49.5713 15.9391 49.7546 16.1391C49.9546 16.3224 50.1879 16.4141 50.4546 16.4141Z" fill="black"/>
<path d="M72.5773 26.0532C72.0273 26.0532 71.519 25.9199 71.0524 25.6533C70.6024 25.3699 70.2358 25.0033 69.9524 24.5533C69.6858 24.0867 69.5524 23.5784 69.5524 23.0284V17.7786H83.9018V14.0538C83.9018 14.0538 83.8018 13.5622 83.6018 13.3788C83.4916 13.2586 83.273 13.0369 83.1162 12.8792C82.9967 12.7589 82.8572 12.6606 82.7042 12.5874L82.4448 12.4632C82.2414 12.3657 82.0187 12.3152 81.7931 12.3152H69.5524V11.5539H81.2769C81.8435 11.5539 82.3518 11.6956 82.8018 11.9789C83.2685 12.2456 83.6351 12.6122 83.9018 13.0789C84.1851 13.5288 84.3268 14.0288 84.3268 14.5788V26.0532H72.5773ZM72.0273 25.4427L83.9018 25.4949V18.4482H70.3233V23.5534C70.3233 23.82 71.144 24.9677 71.3274 25.1677C71.5274 25.351 71.7607 25.4427 72.0273 25.4427Z" fill="black"/>
<path d="M86.3253 26.0532V25.1677L100.468 14.0538V11.9789H86.3253V11.5539H101.1V14.3538L87.1017 25.4033H101.1V26.0532H86.3253Z" fill="black"/>
<path d="M103.881 26.0532V11.054C103.881 10.504 104.014 10.004 104.28 9.55403C104.547 9.08738 104.905 8.72073 105.355 8.45408C105.822 8.18742 106.33 8.0541 106.88 8.0541H118.88C119.43 8.0541 119.93 8.18742 120.38 8.45408C120.846 8.72073 121.213 9.08738 121.48 9.55403C121.746 10.004 121.88 10.504 121.88 11.054V26.0532H121.48V19.4786H104.38V26.0532H103.881ZM104.38 18.8536H121.48V11.054C121.48 10.7873 121.38 9.84816 121.18 9.66484C120.996 9.46485 120.873 8.92568 120.606 8.92568H105.457C105.19 8.92568 104.855 9.46485 104.655 9.66484C104.472 9.84816 104.38 10.7873 104.38 11.054V18.8536Z" fill="black"/>
<path d="M139.93 26.0532L134.055 18.2424H134.476L140.375 26.0282V26.0532H139.93ZM124.731 26.0532V8.07909H139.73C140.28 8.07909 140.78 8.22076 141.23 8.50408C141.696 8.77073 142.063 9.12905 142.33 9.57902C142.596 10.029 142.73 10.529 142.73 11.079V16.3537C142.73 16.9037 142.596 17.4037 142.33 17.8536C142.211 18.0545 142.077 18.1568 141.923 18.2337C141.492 18.4499 141 18.5423 140.517 18.5423C140.247 18.5423 139.953 18.5423 139.73 18.5423H125.008V26.0532H124.731ZM125.983 18.1257H141.347C141.614 18.1257 141.839 18.034 142.022 17.8507C142.222 17.6674 142.322 16.6204 142.322 16.3537V11.079C142.322 10.8123 142.222 9.70177 142.022 9.51844C141.839 9.31845 141.614 8.85812 141.347 8.85812H125.983C125.716 8.85812 125.483 9.31845 125.283 9.51844C125.1 9.70177 125.008 10.8123 125.008 11.079V16.3537C125.008 16.6204 125.1 17.6674 125.283 17.8507C125.483 18.034 125.716 18.1257 125.983 18.1257Z" fill="black"/>
<path fill-rule="evenodd" clip-rule="evenodd" d="M48.6574 26.3235V7.78384H63.152C63.7471 7.78384 64.2944 7.92855 64.7878 8.22049C65.2949 8.51064 65.6953 8.91103 65.9854 9.41808C66.2774 9.91147 66.4221 10.4588 66.4221 11.054V14.8788C66.4221 15.1359 66.3856 15.392 66.3136 15.6463C66.2708 15.8301 66.2115 16.0084 66.1358 16.1811C66.4658 16.6851 66.7208 17.1305 66.8975 17.516C67.0961 17.9493 67.197 18.3959 67.197 18.8536V23.0534C67.197 23.6492 67.052 24.2039 66.7615 24.7124L66.7604 24.7143L66.7593 24.7161C66.4685 25.2069 66.068 25.5978 65.5627 25.8869C65.0694 26.1788 64.522 26.3235 63.9269 26.3235H48.6574ZM65.4269 25.6533C65.8935 25.3866 66.2602 25.0283 66.5268 24.5783C66.7935 24.1117 66.9268 23.6034 66.9268 23.0534V18.8536C66.9268 18.4369 66.8351 18.0286 66.6518 17.6286C66.4685 17.2287 66.1935 16.7537 65.8268 16.2037C65.9268 16.0037 66.0018 15.7954 66.0518 15.5787C66.1185 15.3454 66.1518 15.1121 66.1518 14.8788V11.054C66.1518 10.6209 66.0692 10.2188 65.9038 9.84774C65.8592 9.74758 65.8085 9.64967 65.7518 9.55403C65.6745 9.41871 65.5888 9.2918 65.4946 9.17329C65.493 9.17127 65.4914 9.16925 65.4898 9.16722C65.3891 9.04109 65.2787 8.92453 65.1588 8.81754C65.0055 8.68073 64.8365 8.55958 64.6519 8.45408C64.2019 8.18742 63.7019 8.0541 63.152 8.0541H48.9276V26.0532H63.9269C64.4769 26.0532 64.9769 25.9199 65.4269 25.6533ZM64.9638 25.4427C65.2305 25.4427 65.4555 25.351 65.6388 25.1677C65.8388 24.9677 65.9388 24.7344 65.9388 24.4677V17.9336C65.9388 17.6669 65.8388 17.4419 65.6388 17.2586C65.4555 17.0586 65.2305 16.9586 64.9638 16.9586L50.4546 17.0109C50.1879 17.0109 49.9546 17.1109 49.7546 17.3109C49.5713 17.4942 49.4796 17.7192 49.4796 17.9858V24.52C49.4796 24.7866 49.5713 25.02 49.7546 25.22C49.9546 25.4033 50.1879 25.4949 50.4546 25.4949L64.9638 25.4427ZM50.4541 25.2247C50.4542 25.2247 50.4544 25.2247 50.4546 25.2247L64.9633 25.1724H64.9638C65.1611 25.1724 65.3166 25.1077 65.4477 24.9766C65.6004 24.8239 65.6685 24.658 65.6685 24.4677V17.9336C65.6685 17.7442 65.6014 17.591 65.4562 17.4578L65.4475 17.4499L65.4396 17.4412C65.3065 17.2961 65.1534 17.229 64.9642 17.2289C64.9641 17.2289 64.9639 17.2289 64.9638 17.2289L50.4551 17.2811H50.4546C50.2643 17.2811 50.0985 17.3493 49.9457 17.502C49.8147 17.633 49.7499 17.7886 49.7499 17.9858V24.52C49.7499 24.7139 49.8128 24.8798 49.946 25.0286C50.0947 25.1616 50.2603 25.2246 50.4541 25.2247ZM49.7546 9.29323C49.5713 9.47656 49.4796 9.70155 49.4796 9.9682V15.4391C49.4796 15.7058 49.5713 15.9391 49.7546 16.1391C49.9546 16.3224 50.1879 16.4141 50.4546 16.4141H64.6888C64.9555 16.4141 65.1805 16.3224 65.3638 16.1391C65.5471 15.9391 65.6388 15.7058 65.6388 15.4391V9.9682C65.6388 9.95037 65.6384 9.93273 65.6376 9.91527C65.6332 9.82166 65.617 9.73341 65.589 9.65051C65.5887 9.64955 65.5884 9.64859 65.588 9.64763C65.5431 9.51594 65.4684 9.39781 65.3638 9.29323C65.2601 9.18007 65.143 9.09892 65.0126 9.04979C64.9125 9.01209 64.8046 8.99325 64.6888 8.99325H50.4546C50.1879 8.99325 49.9546 9.09324 49.7546 9.29323ZM65.1686 15.9521C65.3044 15.8021 65.3685 15.6349 65.3685 15.4391V9.9682C65.3685 9.77093 65.3037 9.61538 65.1727 9.48433L65.1686 9.48018L65.1646 9.47585C65.0314 9.3306 64.8782 9.2635 64.6888 9.2635H50.4546C50.2643 9.2635 50.0985 9.33161 49.9457 9.48433C49.8147 9.61538 49.7499 9.77094 49.7499 9.9682V15.4391C49.7499 15.6331 49.8129 15.7989 49.946 15.9477C50.0948 16.0809 50.2606 16.1438 50.4546 16.1438H64.6888C64.884 16.1438 65.0384 16.0804 65.1686 15.9521ZM70.9133 25.885L70.9084 25.882C70.4242 25.5771 70.0286 25.1815 69.7237 24.6973L69.7207 24.6924L69.7178 24.6874C69.4272 24.1789 69.2822 23.6242 69.2822 23.0284V17.5084H83.6315V14.0834C83.6289 14.0723 83.6255 14.058 83.6212 14.041C83.6099 13.997 83.5932 13.9371 83.5711 13.8727C83.5216 13.7282 83.4641 13.6193 83.4192 13.5781L83.4105 13.5701L83.4026 13.5615C83.2968 13.4461 83.0824 13.2285 82.9246 13.0697C82.8272 12.9718 82.7132 12.8913 82.5875 12.8311L82.3281 12.7069C82.1611 12.6269 81.9783 12.5854 81.7931 12.5854H69.2822V11.2837H81.2769C81.889 11.2837 82.4462 11.4369 82.9409 11.7471C83.4454 12.0366 83.8442 12.4353 84.1336 12.9398C84.4429 13.4331 84.597 13.9817 84.597 14.5788V26.3235H72.5773C71.9814 26.3235 71.4268 26.1785 70.9183 25.8879L70.9133 25.885ZM83.9018 13.0789C83.6351 12.6122 83.2685 12.2456 82.8018 11.9789C82.3518 11.6956 81.8435 11.5539 81.2769 11.5539H69.5524V12.3152H81.7931C82.0187 12.3152 82.2414 12.3657 82.4448 12.4632L82.7042 12.5874C82.8572 12.6606 82.9967 12.7589 83.1162 12.8792C83.273 13.0369 83.4916 13.2586 83.6018 13.3788C83.8018 13.5622 83.9018 14.0538 83.9018 14.0538V17.7786H69.5524V23.0284C69.5524 23.5784 69.6858 24.0867 69.9524 24.5533C70.2358 25.0033 70.6024 25.3699 71.0524 25.6533C71.519 25.9199 72.0273 26.0532 72.5773 26.0532H84.3268V14.5788C84.3268 14.0288 84.1851 13.5288 83.9018 13.0789ZM72.0273 25.4427L83.9018 25.4949V18.4482H70.3233V23.5534C70.3233 23.82 71.144 24.9677 71.3274 25.1677C71.5274 25.351 71.7607 25.4427 72.0273 25.4427ZM71.519 24.9767C71.4354 24.882 71.2022 24.5698 70.9821 24.2366C70.8701 24.0671 70.7667 23.9 70.6923 23.7618C70.655 23.6925 70.6275 23.6351 70.61 23.5912C70.5984 23.562 70.5946 23.547 70.5935 23.5431V18.7185H83.6315V25.2235L72.0279 25.1724H72.0273C71.8335 25.1724 71.6678 25.1096 71.519 24.9767ZM86.055 26.3235V25.0364L100.198 13.9225V12.2492H86.055V11.2837H101.37V14.4848L87.8803 25.133H101.37V26.3235H86.055ZM87.1017 25.4033L101.1 14.3538V11.5539H86.3253V11.9789H100.468V14.0538L86.3253 25.1677V26.0532H101.1V25.4033H87.1017ZM103.61 26.3235V11.054C103.61 10.4589 103.755 9.91152 104.047 9.41814C104.336 8.91287 104.727 8.51243 105.218 8.22158L105.22 8.22049L105.221 8.21943C105.73 7.92888 106.285 7.78384 106.88 7.78384H118.88C119.475 7.78384 120.022 7.92857 120.516 8.22053C121.023 8.5107 121.423 8.91109 121.713 9.41813C122.005 9.91151 122.15 10.4589 122.15 11.054V26.3235H121.209V19.7488H104.651V26.3235H103.61ZM104.38 19.4786H121.48V26.0532H121.88V11.054C121.88 10.504 121.746 10.004 121.48 9.55403C121.389 9.39553 121.287 9.24857 121.173 9.11314C121.033 8.94626 120.876 8.7969 120.701 8.66505C120.6 8.58888 120.493 8.51856 120.38 8.45408C119.93 8.18742 119.43 8.0541 118.88 8.0541H106.88C106.33 8.0541 105.822 8.18742 105.355 8.45408C104.905 8.72073 104.547 9.08738 104.28 9.55403C104.014 10.004 103.881 10.504 103.881 11.054V26.0532H104.38V19.4786ZM120.948 9.26554C120.965 9.29693 120.981 9.32888 120.997 9.36059C121.056 9.47859 121.114 9.59337 121.18 9.66484C121.38 9.84816 121.48 10.7873 121.48 11.054V18.8536H104.38V11.054C104.38 10.7873 104.472 9.84816 104.655 9.66484C104.71 9.60984 104.776 9.5292 104.847 9.44118C105.034 9.2091 105.263 8.92568 105.457 8.92568H120.606C120.752 8.92568 120.855 9.08679 120.948 9.26554ZM104.651 18.5833H121.209V11.054C121.209 10.94 121.187 10.6544 121.138 10.3739C121.114 10.2346 121.086 10.1051 121.053 10.0036C121.037 9.95283 121.022 9.91421 121.008 9.88709C121 9.87062 120.995 9.86264 120.993 9.86024L120.988 9.85612L120.98 9.84746C120.909 9.76971 120.854 9.67129 120.811 9.59117C120.787 9.54544 120.769 9.50895 120.752 9.47467C120.731 9.43384 120.712 9.39614 120.687 9.34969C120.646 9.27459 120.614 9.22748 120.588 9.20103C120.586 9.19906 120.585 9.19737 120.583 9.19594H105.465C105.46 9.19772 105.442 9.20491 105.409 9.22972C105.359 9.26712 105.3 9.32485 105.233 9.39977C105.174 9.46666 105.116 9.5386 105.057 9.61137L105.038 9.63498C104.978 9.70915 104.912 9.78999 104.851 9.85143C104.849 9.85394 104.844 9.86216 104.837 9.87883C104.824 9.90664 104.81 9.94599 104.795 9.99732C104.765 10.0999 104.738 10.2304 104.716 10.3702C104.672 10.6515 104.651 10.9384 104.651 11.054V18.5833ZM139.795 26.3235L134.146 18.8126H125.278V26.3235H124.46V7.80884H139.73C140.327 7.80884 140.876 7.96291 141.369 8.27227C141.873 8.56119 142.272 8.95146 142.562 9.44125C142.855 9.93512 143 10.4831 143 11.079V16.3537C143 16.9496 142.855 17.4975 142.562 17.9914C142.413 18.2436 142.237 18.379 142.044 18.4753C141.568 18.7142 141.032 18.8126 140.517 18.8126H135.247L140.646 25.9374V26.3235H139.795ZM134.703 18.5423H140.517C140.877 18.5423 141.242 18.4909 141.584 18.3752C141.7 18.3357 141.814 18.2887 141.923 18.2337C142.021 18.1848 142.111 18.1257 142.193 18.0375C142.196 18.0348 142.198 18.0321 142.201 18.0294C142.246 17.9806 142.289 17.923 142.33 17.8536C142.343 17.8317 142.355 17.8096 142.368 17.7874C142.609 17.3547 142.73 16.8768 142.73 16.3537V11.079C142.73 10.5909 142.625 10.1423 142.415 9.73301C142.388 9.68105 142.36 9.62972 142.33 9.57902C142.286 9.50505 142.239 9.43356 142.19 9.36455C142.186 9.35907 142.182 9.3536 142.178 9.34815C141.961 9.04725 141.691 8.79398 141.369 8.58833C141.324 8.5593 141.277 8.53121 141.23 8.50408C140.78 8.22076 140.28 8.07909 139.73 8.07909H124.731V26.0532H125.008V18.5423H134.281L139.93 26.0532H140.375V26.0282L134.703 18.5423ZM141.347 18.1257C141.406 18.1257 141.462 18.1213 141.516 18.1125C141.622 18.0954 141.721 18.0616 141.812 18.0111C141.887 17.9691 141.957 17.9157 142.022 17.8507C142.052 17.8239 142.079 17.7785 142.104 17.7197C142.11 17.7049 142.116 17.6892 142.122 17.6728C142.256 17.3096 142.322 16.5715 142.322 16.3537V11.079C142.322 10.8838 142.269 10.2367 142.162 9.83184C142.149 9.78495 142.136 9.74131 142.122 9.702C142.092 9.6169 142.059 9.55207 142.022 9.51844C141.971 9.4624 141.916 9.38592 141.858 9.30485L141.858 9.30482L141.858 9.30476C141.71 9.09655 141.539 8.85812 141.347 8.85812H125.983C125.796 8.85812 125.626 9.08368 125.472 9.28761C125.406 9.37502 125.343 9.45845 125.283 9.51844C125.1 9.70177 125.008 10.8123 125.008 11.079V16.3537C125.008 16.6204 125.1 17.6674 125.283 17.8507C125.483 18.034 125.716 18.1257 125.983 18.1257H141.347ZM125.479 17.6637C125.627 17.7939 125.791 17.8554 125.983 17.8554H141.347C141.545 17.8554 141.7 17.7907 141.831 17.6596L141.833 17.6577C141.835 17.6548 141.84 17.6464 141.848 17.63C141.862 17.6002 141.878 17.5573 141.894 17.501C141.927 17.3887 141.956 17.245 141.98 17.0915C142.029 16.7827 142.052 16.469 142.052 16.3537V11.079C142.052 10.963 142.029 10.6327 141.98 10.3075C141.956 10.1457 141.926 9.99369 141.893 9.87492C141.877 9.81538 141.861 9.77002 141.846 9.73844C141.839 9.723 141.834 9.71443 141.832 9.71072L141.831 9.70973L141.823 9.70106C141.764 9.6371 141.707 9.55748 141.657 9.48824L141.638 9.46148C141.592 9.39731 141.55 9.33764 141.505 9.28251C141.455 9.21928 141.412 9.17554 141.377 9.14906C141.358 9.1347 141.347 9.12983 141.343 9.12837H125.987C125.983 9.12973 125.971 9.13468 125.95 9.15036C125.913 9.17764 125.869 9.22224 125.816 9.28623C125.774 9.33679 125.733 9.39021 125.69 9.44779C125.678 9.46303 125.666 9.47856 125.654 9.49441C125.603 9.56196 125.544 9.63853 125.482 9.70176C125.48 9.70554 125.475 9.71445 125.468 9.73058C125.455 9.76298 125.44 9.80914 125.424 9.86924C125.394 9.98908 125.367 10.142 125.344 10.3042C125.3 10.6301 125.278 10.9616 125.278 11.079V16.3537C125.278 16.4705 125.3 16.7854 125.344 17.0949C125.366 17.2488 125.393 17.3935 125.424 17.5069C125.439 17.5638 125.454 17.6074 125.467 17.6381C125.472 17.6511 125.477 17.6593 125.479 17.6637Z" fill="black"/>
<path d="M103.711 31.6273C103.711 31.9072 103.938 32.134 104.218 32.134H141.964C142.244 32.134 142.471 31.9072 142.471 31.6273C142.471 31.3474 142.244 31.1206 141.964 31.1206H104.218C103.938 31.1206 103.711 31.3474 103.711 31.6273Z" fill="black"/>
<path d="M28.7178 28.4888C28.7178 30.7259 30.5119 32.5394 32.7251 32.5394C34.9383 32.5394 36.7325 30.7259 36.7325 28.4888C36.7325 26.2517 34.9383 24.4382 32.7251 24.4382C30.5119 24.4382 28.7178 26.2517 28.7178 28.4888Z" fill="white"/>
<path d="M0.472951 28.4888C0.472951 30.7259 2.2671 32.5394 4.48031 32.5394C6.69351 32.5394 8.48766 30.7259 8.48766 28.4888C8.48766 26.2517 6.69351 24.4382 4.48031 24.4382C2.2671 24.4382 0.472951 26.2517 0.472951 28.4888Z" fill="white"/>
<path fill-rule="evenodd" clip-rule="evenodd" d="M18.0475 1.60793L13.8652 6.7585L17.2504 12.0155L21.7733 12.0155L25.2752 6.78048L18.0475 1.60793ZM25.8013 5.99386L18.4429 0.727728C18.1234 0.499064 17.6811 0.558604 17.4334 0.863619L13.3263 5.9216L10.1916 1.0535C9.9024 0.604454 9.24812 0.597895 8.95002 1.04104L1.55471 12.0347C0.675353 12.1628 3.57826e-05 12.92 3.29475e-05 13.8349L3.39355e-06 23.3442C7.30257e-07 24.2096 0.701551 24.9111 1.56696 24.9111H1.73807C0.6799 25.7394 0 27.0354 0 28.4888C0 30.9823 2.00113 33.0124 4.48031 33.0124C6.95948 33.0124 8.96061 30.9823 8.96061 28.4888C8.96061 27.0354 8.28071 25.7394 7.22254 24.9111H29.9829C28.9247 25.7394 28.2448 27.0354 28.2448 28.4888C28.2448 30.9823 30.246 33.0124 32.7251 33.0124C35.2043 33.0124 37.2054 30.9823 37.2054 28.4888C37.2054 27.0354 36.5256 25.7394 35.4674 24.9111H35.7156C36.5384 24.9111 37.2054 24.2441 37.2054 23.4213V14.7406C37.2054 13.2356 35.9854 12.0155 34.4804 12.0155H34.3472L29.7899 3.48724C29.325 2.61726 28.1005 2.55673 27.5521 3.37662L25.8013 5.99386ZM34.4864 12.9615C34.4844 12.9614 34.4824 12.9614 34.4804 12.9614L1.81942 12.9614C1.33701 12.9614 0.945936 13.3525 0.945934 13.8349L0.945905 23.3442C0.945904 23.6872 1.22396 23.9652 1.56696 23.9652H35.7156C36.016 23.9652 36.2595 23.7217 36.2595 23.4213V14.7406C36.2595 13.76 35.4663 12.9647 34.4864 12.9615ZM33.2747 12.0155L22.9114 12.0155L28.3383 3.90253C28.4896 3.67636 28.8274 3.69306 28.9556 3.93305L33.2747 12.0155ZM32.7251 24.9111C30.7779 24.9111 29.1907 26.5081 29.1907 28.4888C29.1907 30.4695 30.7779 32.0665 32.7251 32.0665C34.6724 32.0665 36.2595 30.4695 36.2595 28.4888C36.2595 26.5081 34.6724 24.9111 32.7251 24.9111ZM4.48031 24.9111C2.53309 24.9111 0.945901 26.5081 0.945901 28.4888C0.945901 30.4695 2.53308 32.0665 4.48031 32.0665C6.42753 32.0665 8.01471 30.4695 8.01471 28.4888C8.01471 26.5081 6.42753 24.9111 4.48031 24.9111ZM2.70757 12.0155L16.1254 12.0155L9.56299 1.82451L2.70757 12.0155Z" fill="black"/>
</svg>