<svg width="143" height="33" viewBox="0 0 143 33" fill="none" xmlns="http://www.w3.org/2000/svg">
<path d="M48.9276 25.4644V7.46523H63.152C63.7019 7.46523 64.2019 7.59856 64.6519 7.86521C65.1185 8.13186 65.4852 8.49851 65.7518 8.96516C66.0185 9.41514 66.1518 9.91511 66.1518 10.4651V14.2899C66.1518 14.5232 66.1185 14.7566 66.0518 14.9899C66.0018 15.2065 65.9268 15.4149 65.8268 15.6148C66.1935 16.1648 66.4685 16.6398 66.6518 17.0398C66.8351 17.4398 66.9268 17.8481 66.9268 18.2647V22.4645C66.9268 23.0145 66.7935 23.5228 66.5268 23.9894C66.2602 24.4394 65.8935 24.7977 65.4269 25.0644C64.9769 25.3311 64.4769 25.4644 63.9269 25.4644H48.9276ZM50.4546 24.9061L64.9638 24.8538C65.2305 24.8538 65.4555 24.7622 65.6388 24.5788C65.8388 24.3788 65.9388 24.1455 65.9388 23.8789V17.3447C65.9388 17.0781 65.8388 16.8531 65.6388 16.6698C65.4555 16.4698 65.2305 16.3698 64.9638 16.3698L50.4546 16.422C50.1879 16.422 49.9546 16.522 49.7546 16.722C49.5713 16.9053 49.4796 17.1303 49.4796 17.397V23.9311C49.4796 24.1978 49.5713 24.4311 49.7546 24.6311C49.9546 24.8144 50.1879 24.9061 50.4546 24.9061ZM50.4546 15.8252H64.6888C64.9555 15.8252 65.1805 15.7335 65.3638 15.5502C65.5471 15.3502 65.6388 15.1169 65.6388 14.8502V9.37933C65.6388 9.11268 65.5471 8.88769 65.3638 8.70437C65.1805 8.50437 64.9555 8.40438 64.6888 8.40438H50.4546C50.1879 8.40438 49.9546 8.50437 49.7546 8.70437C49.5713 8.88769 49.4796 9.11268 49.4796 9.37933V14.8502C49.4796 15.1169 49.5713 15.3502 49.7546 15.5502C49.9546 15.7335 50.1879 15.8252 50.4546 15.8252Z" fill="black"/>
<path d="M72.5773 25.4644C72.0273 25.4644 71.519 25.3311 71.0524 25.0644C70.6024 24.7811 70.2358 24.4144 69.9524 23.9645C69.6858 23.4978 69.5524 22.9895 69.5524 22.4395V17.1898H83.9018V13.4649C83.9018 13.4649 83.8018 12.9733 83.6018 12.79C83.4916 12.6698 83.273 12.4481 83.1162 12.2903C82.9967 12.1701 82.8572 12.0718 82.7042 11.9985L82.4448 11.8743C82.2414 11.7769 82.0187 11.7263 81.7931 11.7263H69.5524V10.9651H81.2769C81.8435 10.9651 82.3518 11.1067 82.8018 11.39C83.2685 11.6567 83.6351 12.0233 83.9018 12.49C84.1851 12.94 84.3268 13.4399 84.3268 13.9899V25.4644H72.5773ZM72.0273 24.8538L83.9018 24.9061V17.8593H70.3233V22.9645C70.3233 23.2312 71.144 24.3788 71.3274 24.5788C71.5274 24.7622 71.7607 24.8538 72.0273 24.8538Z" fill="black"/>
<path d="M86.3253 25.4644V24.5788L100.468 13.4649V11.39H86.3253V10.9651H101.1V13.7649L87.1017 24.8144H101.1V25.4644H86.3253Z" fill="black"/>
<path d="M103.881 25.4644V10.4651C103.881 9.91511 104.014 9.41514 104.28 8.96516C104.547 8.49851 104.905 8.13186 105.355 7.86521C105.822 7.59856 106.33 7.46523 106.88 7.46523H118.88C119.43 7.46523 119.93 7.59856 120.38 7.86521C120.846 8.13186 121.213 8.49851 121.48 8.96516C121.746 9.41514 121.88 9.91511 121.88 10.4651V25.4644H121.48V18.8897H104.38V25.4644H103.881ZM104.38 18.2647H121.48V10.4651C121.48 10.1984 121.38 9.25929 121.18 9.07597C120.996 8.87598 120.873 8.33681 120.606 8.33681H105.457C105.19 8.33681 104.855 8.87598 104.655 9.07597C104.472 9.25929 104.38 10.1984 104.38 10.4651V18.2647Z" fill="black"/>
<path d="M139.93 25.4644L134.055 17.6535H134.476L140.375 25.4394V25.4644H139.93ZM124.731 25.4644V7.49023H139.73C140.28 7.49023 140.78 7.63189 141.23 7.91521C141.696 8.18186 142.063 8.54018 142.33 8.99016C142.596 9.44014 142.73 9.94011 142.73 10.4901V15.7648C142.73 16.3148 142.596 16.8148 142.33 17.2648C142.211 17.4656 142.077 17.5679 141.923 17.6449C141.492 17.861 141 17.9535 140.517 17.9535C140.247 17.9535 139.953 17.9535 139.73 17.9535H125.008V25.4644H124.731ZM125.983 17.5368H141.347C141.614 17.5368 141.839 17.4452 142.022 17.2618C142.222 17.0785 142.322 16.0315 142.322 15.7648V10.4901C142.322 10.2234 142.222 9.1129 142.022 8.92958C141.839 8.72959 141.614 8.26925 141.347 8.26925H125.983C125.716 8.26925 125.483 8.72959 125.283 8.92958C125.1 9.1129 125.008 10.2234 125.008 10.4901V15.7648C125.008 16.0315 125.1 17.0785 125.283 17.2618C125.483 17.4452 125.716 17.5368 125.983 17.5368Z" fill="black"/>
<path fill-rule="evenodd" clip-rule="evenodd" d="M48.6574 25.7346V7.19497H63.152C63.7471 7.19497 64.2944 7.33969 64.7878 7.63162C65.2949 7.92178 65.6953 8.32217 65.9854 8.82921C66.2774 9.32261 66.4221 9.86997 66.4221 10.4651V14.2899C66.4221 14.5471 66.3856 14.8031 66.3136 15.0574C66.2708 15.2412 66.2115 15.4195 66.1358 15.5922C66.4658 16.0962 66.7208 16.5417 66.8975 16.9272C67.0961 17.3605 67.197 17.807 67.197 18.2647V22.4645C67.197 23.0604 67.052 23.6151 66.7615 24.1235L66.7604 24.1254L66.7593 24.1272C66.4685 24.618 66.068 25.0089 65.5627 25.298C65.0694 25.5899 64.522 25.7346 63.9269 25.7346H48.6574ZM65.4269 25.0644C65.8935 24.7977 66.2602 24.4394 66.5268 23.9894C66.7935 23.5228 66.9268 23.0145 66.9268 22.4645V18.2647C66.9268 17.8481 66.8351 17.4398 66.6518 17.0398C66.4685 16.6398 66.1935 16.1648 65.8268 15.6148C65.9268 15.4149 66.0018 15.2065 66.0518 14.9899C66.1185 14.7566 66.1518 14.5232 66.1518 14.2899V10.4651C66.1518 10.032 66.0692 9.62994 65.9038 9.25887C65.8592 9.15871 65.8085 9.0608 65.7518 8.96516C65.6745 8.82984 65.5888 8.70293 65.4946 8.58443C65.493 8.5824 65.4914 8.58038 65.4898 8.57836C65.3891 8.45222 65.2787 8.33566 65.1588 8.22867C65.0055 8.09186 64.8365 7.97071 64.6519 7.86521C64.2019 7.59856 63.7019 7.46523 63.152 7.46523H48.9276V25.4644H63.9269C64.4769 25.4644 64.9769 25.3311 65.4269 25.0644ZM64.9638 24.8538C65.2305 24.8538 65.4555 24.7622 65.6388 24.5788C65.8388 24.3788 65.9388 24.1455 65.9388 23.8789V17.3447C65.9388 17.0781 65.8388 16.8531 65.6388 16.6698C65.4555 16.4698 65.2305 16.3698 64.9638 16.3698L50.4546 16.422C50.1879 16.422 49.9546 16.522 49.7546 16.722C49.5713 16.9053 49.4796 17.1303 49.4796 17.397V23.9311C49.4796 24.1978 49.5713 24.4311 49.7546 24.6311C49.9546 24.8144 50.1879 24.9061 50.4546 24.9061L64.9638 24.8538ZM50.4541 24.6358C50.4542 24.6358 50.4544 24.6358 50.4546 24.6358L64.9633 24.5836H64.9638C65.1611 24.5836 65.3166 24.5188 65.4477 24.3877C65.6004 24.235 65.6685 24.0692 65.6685 23.8789V17.3447C65.6685 17.1553 65.6014 17.0021 65.4562 16.869L65.4475 16.861L65.4396 16.8524C65.3065 16.7072 65.1534 16.6401 64.9642 16.64C64.9641 16.64 64.9639 16.64 64.9638 16.64L50.4551 16.6923H50.4546C50.2643 16.6923 50.0985 16.7604 49.9457 16.9131C49.8147 17.0442 49.7499 17.1997 49.7499 17.397V23.9311C49.7499 24.1251 49.8128 24.2909 49.946 24.4398C50.0947 24.5727 50.2603 24.6357 50.4541 24.6358ZM49.7546 8.70437C49.5713 8.88769 49.4796 9.11268 49.4796 9.37933V14.8502C49.4796 15.1169 49.5713 15.3502 49.7546 15.5502C49.9546 15.7335 50.1879 15.8252 50.4546 15.8252H64.6888C64.9555 15.8252 65.1805 15.7335 65.3638 15.5502C65.5471 15.3502 65.6388 15.1169 65.6388 14.8502V9.37933C65.6388 9.3615 65.6384 9.34386 65.6376 9.3264C65.6332 9.2328 65.617 9.14454 65.589 9.06165C65.5887 9.06068 65.5884 9.05972 65.588 9.05876C65.5431 8.92707 65.4684 8.80894 65.3638 8.70437C65.2601 8.5912 65.143 8.51005 65.0126 8.46092C64.9125 8.42323 64.8046 8.40438 64.6888 8.40438H50.4546C50.1879 8.40438 49.9546 8.50437 49.7546 8.70437ZM65.1686 15.3632C65.3044 15.2132 65.3685 15.0461 65.3685 14.8502V9.37933C65.3685 9.18207 65.3037 9.02651 65.1727 8.89547L65.1686 8.89131L65.1646 8.88698C65.0314 8.74173 64.8782 8.67464 64.6888 8.67464H50.4546C50.2643 8.67464 50.0985 8.74275 49.9457 8.89547C49.8147 9.02651 49.7499 9.18207 49.7499 9.37933V14.8502C49.7499 15.0442 49.8129 15.21 49.946 15.3589C50.0948 15.492 50.2606 15.5549 50.4546 15.5549H64.6888C64.884 15.5549 65.0384 15.4915 65.1686 15.3632ZM70.9133 25.2962L70.9084 25.2931C70.4242 24.9882 70.0286 24.5926 69.7237 24.1084L69.7207 24.1036L69.7178 24.0985C69.4272 23.5901 69.2822 23.0354 69.2822 22.4395V16.9195H83.6315V13.4945C83.6289 13.4834 83.6255 13.4691 83.6212 13.4521C83.6099 13.4082 83.5932 13.3482 83.5711 13.2839C83.5216 13.1394 83.4641 13.0304 83.4192 12.9892L83.4105 12.9813L83.4026 12.9726C83.2968 12.8572 83.0824 12.6396 82.9246 12.4809C82.8272 12.383 82.7132 12.3025 82.5875 12.2423L82.3281 12.118C82.1611 12.0381 81.9783 11.9966 81.7931 11.9966H69.2822V10.6948H81.2769C81.889 10.6948 82.4462 10.8481 82.9409 11.1583C83.4454 11.4477 83.8442 11.8464 84.1336 12.3509C84.4429 12.8443 84.597 13.3928 84.597 13.9899V25.7346H72.5773C71.9814 25.7346 71.4268 25.5896 70.9183 25.299L70.9133 25.2962ZM83.9018 12.49C83.6351 12.0233 83.2685 11.6567 82.8018 11.39C82.3518 11.1067 81.8435 10.9651 81.2769 10.9651H69.5524V11.7263H81.7931C82.0187 11.7263 82.2414 11.7769 82.4448 11.8743L82.7042 11.9985C82.8572 12.0718 82.9967 12.1701 83.1162 12.2903C83.273 12.4481 83.4916 12.6698 83.6018 12.79C83.8018 12.9733 83.9018 13.4649 83.9018 13.4649V17.1898H69.5524V22.4395C69.5524 22.9895 69.6858 23.4978 69.9524 23.9645C70.2358 24.4144 70.6024 24.7811 71.0524 25.0644C71.519 25.3311 72.0273 25.4644 72.5773 25.4644H84.3268V13.9899C84.3268 13.4399 84.1851 12.94 83.9018 12.49ZM72.0273 24.8538L83.9018 24.9061V17.8593H70.3233V22.9645C70.3233 23.2312 71.144 24.3788 71.3274 24.5788C71.5274 24.7622 71.7607 24.8538 72.0273 24.8538ZM71.519 24.3878C71.4354 24.2931 71.2022 23.9809 70.9821 23.6477C70.8701 23.4782 70.7667 23.3111 70.6923 23.173C70.655 23.1037 70.6275 23.0462 70.61 23.0023C70.5984 22.9731 70.5946 22.9581 70.5935 22.9543V18.1296H83.6315V24.6346L72.0279 24.5836H72.0273C71.8335 24.5836 71.6678 24.5207 71.519 24.3878ZM86.055 25.7346V24.4475L100.198 13.3336V11.6603H86.055V10.6948H101.37V13.8959L87.8803 24.5442H101.37V25.7346H86.055ZM87.1017 24.8144L101.1 13.7649V10.9651H86.3253V11.39H100.468V13.4649L86.3253 24.5788V25.4644H101.1V24.8144H87.1017ZM103.61 25.7346V10.4651C103.61 9.86999 103.755 9.32265 104.047 8.82927C104.336 8.324 104.727 7.92356 105.218 7.63271L105.22 7.63162L105.221 7.63056C105.73 7.34001 106.285 7.19497 106.88 7.19497H118.88C119.475 7.19497 120.022 7.3397 120.516 7.63167C121.023 7.92183 121.423 8.32222 121.713 8.82926C122.005 9.32264 122.15 9.86999 122.15 10.4651V25.7346H121.209V19.1599H104.651V25.7346H103.61ZM104.38 18.8897H121.48V25.4644H121.88V10.4651C121.88 9.91511 121.746 9.41514 121.48 8.96516C121.389 8.80666 121.287 8.6597 121.173 8.52427C121.033 8.35739 120.876 8.20803 120.701 8.07618C120.6 8.00001 120.493 7.92969 120.38 7.86521C119.93 7.59856 119.43 7.46523 118.88 7.46523H106.88C106.33 7.46523 105.822 7.59856 105.355 7.86521C104.905 8.13186 104.547 8.49851 104.28 8.96516C104.014 9.41514 103.881 9.91511 103.881 10.4651V25.4644H104.38V18.8897ZM120.948 8.67667C120.965 8.70807 120.981 8.74001 120.997 8.77172C121.056 8.88973 121.114 9.0045 121.18 9.07597C121.38 9.25929 121.48 10.1984 121.48 10.4651V18.2647H104.38V10.4651C104.38 10.1984 104.472 9.25929 104.655 9.07597C104.71 9.02098 104.776 8.94034 104.847 8.85231C105.034 8.62023 105.263 8.33681 105.457 8.33681H120.606C120.752 8.33681 120.855 8.49792 120.948 8.67667ZM104.651 17.9945H121.209V10.4651C121.209 10.3511 121.187 10.0655 121.138 9.78504C121.114 9.64574 121.086 9.51624 121.053 9.41471C121.037 9.36396 121.022 9.32534 121.008 9.29822C121 9.28176 120.995 9.27377 120.993 9.27138L120.988 9.26725L120.98 9.25859C120.909 9.18085 120.854 9.08242 120.811 9.0023C120.787 8.95658 120.769 8.92008 120.752 8.8858C120.731 8.84497 120.712 8.80727 120.687 8.76083C120.646 8.68572 120.614 8.63861 120.588 8.61216C120.586 8.61019 120.585 8.60851 120.583 8.60707H105.465C105.46 8.60886 105.442 8.61604 105.409 8.64086C105.359 8.67826 105.3 8.73599 105.233 8.81091C105.174 8.87779 105.116 8.94974 105.057 9.0225L105.038 9.04611C104.978 9.12028 104.912 9.20112 104.851 9.26256C104.849 9.26508 104.844 9.27329 104.837 9.28996C104.824 9.31777 104.81 9.35712 104.795 9.40845C104.765 9.51105 104.738 9.6415 104.716 9.78132C104.672 10.0626 104.651 10.3495 104.651 10.4651V17.9945ZM139.795 25.7346L134.146 18.2237H125.278V25.7346H124.46V7.21997H139.73C140.327 7.21997 140.876 7.37404 141.369 7.6834C141.873 7.97233 142.272 8.3626 142.562 8.85238C142.855 9.34625 143 9.89423 143 10.4901V15.7648C143 16.3607 142.855 16.9087 142.562 17.4025C142.413 17.6547 142.237 17.7901 142.044 17.8865C141.568 18.1253 141.032 18.2237 140.517 18.2237H135.247L140.646 25.3486V25.7346H139.795ZM134.703 17.9535H140.517C140.877 17.9535 141.242 17.9021 141.584 17.7863C141.7 17.7468 141.814 17.6998 141.923 17.6449C142.021 17.596 142.111 17.5368 142.193 17.4486C142.196 17.4459 142.198 17.4433 142.201 17.4405C142.246 17.3917 142.289 17.3341 142.33 17.2648C142.343 17.2428 142.355 17.2207 142.368 17.1985C142.609 16.7659 142.73 16.288 142.73 15.7648V10.4901C142.73 10.0021 142.625 9.55342 142.415 9.14414C142.388 9.09218 142.36 9.04085 142.33 8.99016C142.286 8.91619 142.239 8.84469 142.19 8.77568C142.186 8.7702 142.182 8.76473 142.178 8.75928C141.961 8.45839 141.691 8.20511 141.369 7.99946C141.324 7.97043 141.277 7.94234 141.23 7.91521C140.78 7.63189 140.28 7.49023 139.73 7.49023H124.731V25.4644H125.008V17.9535H134.281L139.93 25.4644H140.375V25.4394L134.703 17.9535ZM141.347 17.5368C141.406 17.5368 141.462 17.5324 141.516 17.5237C141.622 17.5066 141.721 17.4727 141.812 17.4222C141.887 17.3803 141.957 17.3268 142.022 17.2618C142.052 17.235 142.079 17.1896 142.104 17.1308C142.11 17.116 142.116 17.1004 142.122 17.084C142.256 16.7207 142.322 15.9826 142.322 15.7648V10.4901C142.322 10.2949 142.269 9.64786 142.162 9.24297C142.149 9.19608 142.136 9.15245 142.122 9.11314C142.092 9.02804 142.059 8.96321 142.022 8.92958C141.971 8.87354 141.916 8.79705 141.858 8.71598L141.858 8.71595L141.858 8.7159C141.71 8.50768 141.539 8.26925 141.347 8.26925H125.983C125.796 8.26925 125.626 8.49481 125.472 8.69875C125.406 8.78615 125.343 8.86958 125.283 8.92958C125.1 9.1129 125.008 10.2234 125.008 10.4901V15.7648C125.008 16.0315 125.1 17.0785 125.283 17.2618C125.483 17.4452 125.716 17.5368 125.983 17.5368H141.347ZM125.479 17.0748C125.627 17.205 125.791 17.2666 125.983 17.2666H141.347C141.545 17.2666 141.7 17.2018 141.831 17.0707L141.833 17.0689C141.835 17.0659 141.84 17.0576 141.848 17.0412C141.862 17.0113 141.878 16.9685 141.894 16.9122C141.927 16.7998 141.956 16.6561 141.98 16.5026C142.029 16.1939 142.052 15.8801 142.052 15.7648V10.4901C142.052 10.3741 142.029 10.0439 141.98 9.71861C141.956 9.55684 141.926 9.40482 141.893 9.28605C141.877 9.22651 141.861 9.18116 141.846 9.14957C141.839 9.13414 141.834 9.12556 141.832 9.12186L141.831 9.12086L141.823 9.1122C141.764 9.04823 141.707 8.96862 141.657 8.89937L141.638 8.87261C141.592 8.80844 141.55 8.74877 141.505 8.69364C141.455 8.63041 141.412 8.58667 141.377 8.56019C141.358 8.54584 141.347 8.54096 141.343 8.53951H125.987C125.983 8.54086 125.971 8.54581 125.95 8.56149C125.913 8.58878 125.869 8.63337 125.816 8.69737C125.774 8.74792 125.733 8.80134 125.69 8.85892C125.678 8.87416 125.666 8.88969 125.654 8.90554C125.603 8.97309 125.544 9.04967 125.482 9.11289C125.48 9.11667 125.475 9.12559 125.468 9.14171C125.455 9.17412 125.44 9.22028 125.424 9.28037C125.394 9.40021 125.367 9.55314 125.344 9.71534C125.3 10.0413 125.278 10.3727 125.278 10.4901V15.7648C125.278 15.8816 125.3 16.1966 125.344 16.506C125.366 16.66 125.393 16.8046 125.424 16.9181C125.439 16.9749 125.454 17.0185 125.467 17.0492C125.472 17.0623 125.477 17.0704 125.479 17.0748Z" fill="black"/>
<path d="M103.711 31.0384C103.711 31.3183 103.938 31.5452 104.218 31.5452H141.964C142.244 31.5452 142.471 31.3183 142.471 31.0384C142.471 30.7586 142.244 30.5317 141.964 30.5317H104.218C103.938 30.5317 103.711 30.7586 103.711 31.0384Z" fill="black"/>
<path d="M28.7178 27.8999C28.7178 30.1371 30.5119 31.9506 32.7251 31.9506C34.9383 31.9506 36.7325 30.1371 36.7325 27.8999C36.7325 25.6628 34.9383 23.8493 32.7251 23.8493C30.5119 23.8493 28.7178 25.6628 28.7178 27.8999Z" fill="white"/>
<path d="M0.472951 27.8999C0.472951 30.1371 2.2671 31.9506 4.48031 31.9506C6.69351 31.9506 8.48766 30.1371 8.48766 27.8999C8.48766 25.6628 6.69351 23.8493 4.48031 23.8493C2.2671 23.8493 0.472951 25.6628 0.472951 27.8999Z" fill="white"/>
<path fill-rule="evenodd" clip-rule="evenodd" d="M18.0475 1.01907L13.8652 6.16963L17.2504 11.4267L21.7733 11.4267L25.2752 6.19161L18.0475 1.01907ZM25.8013 5.405L18.4429 0.138861C18.1234 -0.089803 17.6811 -0.0302628 17.4334 0.274752L13.3263 5.33274L10.1916 0.464629C9.9024 0.0155867 9.24812 0.00902765 8.95002 0.452176L1.55471 11.4458C0.675353 11.574 3.57826e-05 12.3311 3.29475e-05 13.2461L3.39355e-06 22.7553C7.30257e-07 23.6207 0.701551 24.3222 1.56696 24.3222H1.73807C0.6799 25.1505 0 26.4465 0 27.8999C0 30.3935 2.00113 32.4235 4.48031 32.4235C6.95948 32.4235 8.96061 30.3935 8.96061 27.8999C8.96061 26.4465 8.28071 25.1505 7.22254 24.3222H29.9829C28.9247 25.1505 28.2448 26.4465 28.2448 27.8999C28.2448 30.3935 30.246 32.4235 32.7251 32.4235C35.2043 32.4235 37.2054 30.3935 37.2054 27.8999C37.2054 26.4465 36.5256 25.1505 35.4674 24.3222H35.7156C36.5384 24.3222 37.2054 23.6552 37.2054 22.8324V14.1518C37.2054 12.6467 35.9854 11.4267 34.4804 11.4267H34.3472L29.7899 2.89837C29.325 2.0284 28.1005 1.96787 27.5521 2.78775L25.8013 5.405ZM34.4864 12.3726C34.4844 12.3726 34.4824 12.3726 34.4804 12.3726L1.81942 12.3726C1.33701 12.3726 0.945936 12.7636 0.945934 13.2461L0.945905 22.7553C0.945904 23.0983 1.22396 23.3763 1.56696 23.3763H35.7156C36.016 23.3763 36.2595 23.1328 36.2595 22.8324V14.1518C36.2595 13.1712 35.4663 12.3759 34.4864 12.3726ZM33.2747 11.4267L22.9114 11.4267L28.3383 3.31367C28.4896 3.08749 28.8274 3.10419 28.9556 3.34418L33.2747 11.4267ZM32.7251 24.3222C30.7779 24.3222 29.1907 25.9192 29.1907 27.8999C29.1907 29.8806 30.7779 31.4776 32.7251 31.4776C34.6724 31.4776 36.2595 29.8807 36.2595 27.8999C36.2595 25.9192 34.6724 24.3222 32.7251 24.3222ZM4.48031 24.3222C2.53309 24.3222 0.945901 25.9192 0.945901 27.8999C0.945901 29.8806 2.53308 31.4776 4.48031 31.4776C6.42753 31.4776 8.01471 29.8807 8.01471 27.8999C8.01471 25.9192 6.42753 24.3222 4.48031 24.3222ZM2.70757 11.4267L16.1254 11.4267L9.56299 1.23565L2.70757 11.4267Z" fill="black"/>
</svg>
