<svg width="21" height="22" viewBox="0 0 21 22" fill="none" xmlns="http://www.w3.org/2000/svg">
<path d="M0.465245 10.343C0.587676 10.4395 0.727065 10.5098 0.875446 10.5499C1.02383 10.5899 1.17829 10.599 1.33001 10.5765C1.48172 10.554 1.62772 10.5004 1.75965 10.4188C1.89158 10.3371 2.00687 10.2291 2.09891 10.1008C2.5334 9.49391 3.09689 9.0013 3.74472 8.66202C4.39255 8.32273 5.10692 8.14609 5.83125 8.14609C6.55558 8.14609 7.26996 8.32273 7.91779 8.66202C8.56562 9.0013 9.1291 9.49391 9.5636 10.1008C9.74932 10.3598 10.0257 10.5309 10.3318 10.5765C10.638 10.6221 10.949 10.5385 11.1963 10.3441C11.2837 10.2745 11.3616 10.1927 11.4276 10.1008C11.8621 9.49391 12.4256 9.0013 13.0734 8.66202C13.7212 8.32273 14.4356 8.14609 15.1599 8.14609C15.8843 8.14609 16.5986 8.32273 17.2465 8.66202C17.8943 9.0013 18.4578 9.49391 18.8923 10.1008C18.9834 10.2314 19.0984 10.3417 19.2305 10.4253C19.3627 10.509 19.5094 10.5643 19.6621 10.5881C19.8148 10.6119 19.9706 10.6037 20.1202 10.564C20.2699 10.5243 20.4106 10.4538 20.5341 10.3567C20.6575 10.2596 20.7614 10.1378 20.8395 9.99836C20.9177 9.85891 20.9686 9.70458 20.9894 9.54434C21.0102 9.38411 21.0003 9.22115 20.9605 9.06492C20.9206 8.90869 20.8515 8.76231 20.7572 8.63427C20.1085 7.72464 19.2668 6.98532 18.2985 6.47464C18.7222 5.86774 18.9772 5.14983 19.0351 4.40047C19.093 3.65112 18.9517 2.8996 18.6267 2.22922C18.3018 1.55885 17.8059 0.995803 17.194 0.602505C16.5822 0.209206 15.8783 0.00101756 15.1604 0.00101756C14.4425 0.00101756 13.7386 0.209206 13.1268 0.602505C12.515 0.995803 12.0191 1.55885 11.6941 2.22922C11.3692 2.8996 11.2278 3.65112 11.2857 4.40047C11.3437 5.14983 11.5986 5.86774 12.0224 6.47464C11.469 6.76527 10.9554 7.13258 10.4956 7.56667C10.0358 7.13222 9.52229 6.76457 8.96883 6.47362C9.39255 5.86673 9.64751 5.14881 9.70544 4.39946C9.76338 3.6501 9.62203 2.89858 9.29707 2.22821C8.97211 1.55783 8.47622 0.994786 7.86439 0.601487C7.25256 0.208188 6.54867 0 5.83077 0C5.11286 0 4.40898 0.208188 3.79714 0.601487C3.18531 0.994786 2.68943 1.55783 2.36446 2.22821C2.0395 2.89858 1.89815 3.6501 1.95609 4.39946C2.01403 5.14881 2.26898 5.86673 2.6927 6.47362C1.72442 6.9843 0.882703 7.72362 0.233947 8.63325C0.0481613 8.89212 -0.0318405 9.21766 0.011534 9.5383C0.0549086 9.85893 0.218108 10.1484 0.465245 10.343ZM15.1604 2.44646C15.468 2.44646 15.7686 2.54196 16.0243 2.72089C16.28 2.89982 16.4793 3.15414 16.597 3.45168C16.7147 3.74923 16.7455 4.07664 16.6855 4.39251C16.6255 4.70838 16.4774 4.99853 16.2599 5.22626C16.0425 5.45399 15.7654 5.60908 15.4638 5.67191C15.1621 5.73474 14.8495 5.7025 14.5654 5.57925C14.2812 5.456 14.0384 5.24729 13.8675 4.9795C13.6967 4.71172 13.6055 4.39689 13.6055 4.07483C13.6055 3.64296 13.7693 3.22878 14.0609 2.9234C14.3525 2.61802 14.748 2.44646 15.1604 2.44646ZM5.83077 2.44646C6.13831 2.44646 6.43894 2.54196 6.69465 2.72089C6.95036 2.89982 7.14966 3.15414 7.26735 3.45168C7.38504 3.74923 7.41583 4.07664 7.35583 4.39251C7.29583 4.70838 7.14774 4.99853 6.93028 5.22626C6.71281 5.45399 6.43575 5.60908 6.13412 5.67191C5.83249 5.73474 5.51985 5.7025 5.23572 5.57925C4.95159 5.456 4.70874 5.24729 4.53788 4.9795C4.36702 4.71172 4.27583 4.39689 4.27583 4.07483C4.27583 3.64296 4.43965 3.22878 4.73126 2.9234C5.02287 2.61802 5.41837 2.44646 5.83077 2.44646ZM18.2985 17.8722C18.7222 17.2653 18.9772 16.5474 19.0351 15.798C19.093 15.0487 18.9517 14.2972 18.6267 13.6268C18.3018 12.9564 17.8059 12.3934 17.194 12.0001C16.5822 11.6068 15.8783 11.3986 15.1604 11.3986C14.4425 11.3986 13.7386 11.6068 13.1268 12.0001C12.515 12.3934 12.0191 12.9564 11.6941 13.6268C11.3692 14.2972 11.2278 15.0487 11.2857 15.798C11.3437 16.5474 11.5986 17.2653 12.0224 17.8722C11.4691 18.1632 10.9557 18.5305 10.4956 18.9642C10.0355 18.5305 9.52205 18.1632 8.96883 17.8722C9.39255 17.2653 9.64751 16.5474 9.70544 15.798C9.76338 15.0487 9.62203 14.2972 9.29707 13.6268C8.97211 12.9564 8.47622 12.3934 7.86439 12.0001C7.25256 11.6068 6.54867 11.3986 5.83077 11.3986C5.11286 11.3986 4.40898 11.6068 3.79714 12.0001C3.18531 12.3934 2.68943 12.9564 2.36446 13.6268C2.0395 14.2972 1.89815 15.0487 1.95609 15.798C2.01403 16.5474 2.26898 17.2653 2.6927 17.8722C1.72442 18.3829 0.882703 19.1222 0.233947 20.0318C0.0481109 20.2908 -0.0318708 20.6165 0.0115971 20.9373C0.0550649 21.258 0.218422 21.5475 0.465731 21.7421C0.71304 21.9367 1.02404 22.0205 1.33032 21.975C1.6366 21.9295 1.91307 21.7584 2.09891 21.4994C2.5334 20.8925 3.09689 20.3999 3.74472 20.0606C4.39255 19.7213 5.10692 19.5447 5.83125 19.5447C6.55558 19.5447 7.26996 19.7213 7.91779 20.0606C8.56562 20.3999 9.1291 20.8925 9.5636 21.4994C9.74932 21.7584 10.0257 21.9295 10.3318 21.9751C10.638 22.0207 10.949 21.9371 11.1963 21.7426C11.2837 21.6731 11.3616 21.5913 11.4276 21.4994C11.8621 20.8925 12.4256 20.3999 13.0734 20.0606C13.7212 19.7213 14.4356 19.5447 15.1599 19.5447C15.8843 19.5447 16.5986 19.7213 17.2465 20.0606C17.8943 20.3999 18.4578 20.8925 18.8923 21.4994C18.9834 21.63 19.0984 21.7403 19.2305 21.8239C19.3627 21.9076 19.5094 21.9629 19.6621 21.9867C19.8148 22.0105 19.9706 22.0023 20.1202 21.9626C20.2699 21.9229 20.4106 21.8524 20.5341 21.7553C20.6575 21.6582 20.7614 21.5364 20.8395 21.3969C20.9177 21.2575 20.9686 21.1032 20.9894 20.9429C21.0102 20.7827 21.0003 20.6197 20.9605 20.4635C20.9206 20.3073 20.8515 20.1609 20.7572 20.0329C20.1088 19.1226 19.267 18.3829 18.2985 17.8722ZM5.83077 13.845C6.13831 13.845 6.43894 13.9406 6.69465 14.1195C6.95036 14.2984 7.14966 14.5527 7.26735 14.8503C7.38504 15.1478 7.41583 15.4752 7.35583 15.7911C7.29583 16.107 7.14774 16.3971 6.93028 16.6248C6.71281 16.8526 6.43575 17.0077 6.13412 17.0705C5.83249 17.1333 5.51985 17.1011 5.23572 16.9778C4.95159 16.8546 4.70874 16.6459 4.53788 16.3781C4.36702 16.1103 4.27583 15.7955 4.27583 15.4734C4.27583 15.0415 4.43965 14.6274 4.73126 14.322C5.02287 14.0166 5.41837 13.845 5.83077 13.845ZM15.1604 13.845C15.468 13.845 15.7686 13.9406 16.0243 14.1195C16.28 14.2984 16.4793 14.5527 16.597 14.8503C16.7147 15.1478 16.7455 15.4752 16.6855 15.7911C16.6255 16.107 16.4774 16.3971 16.2599 16.6248C16.0425 16.8526 15.7654 17.0077 15.4638 17.0705C15.1621 17.1333 14.8495 17.1011 14.5654 16.9778C14.2812 16.8546 14.0384 16.6459 13.8675 16.3781C13.6967 16.1103 13.6055 15.7955 13.6055 15.4734C13.6055 15.0415 13.7693 14.6274 14.0609 14.322C14.3525 14.0166 14.748 13.845 15.1604 13.845Z" fill="black"/>
</svg>
