<svg width="14" height="12" viewBox="0 0 14 12" fill="none" xmlns="http://www.w3.org/2000/svg">
<path d="M13.4237 3.91654L10.3038 7.34506C10.255 7.39867 10.1888 7.42879 10.1198 7.42879C10.0509 7.42879 9.98469 7.39867 9.9359 7.34506C9.88712 7.29145 9.85971 7.21874 9.85971 7.14292C9.85971 7.0671 9.88712 6.99439 9.9359 6.94078L12.6119 4.00011H9.40486C8.07879 3.99961 6.79019 4.48349 5.7417 5.37566C4.69321 6.26783 3.94432 7.51766 3.6128 8.92861C3.59834 8.99014 3.56563 9.04462 3.51984 9.08343C3.47405 9.12224 3.41778 9.14316 3.35996 9.14289C3.33801 9.14293 3.31616 9.13981 3.29496 9.13361C3.22827 9.11462 3.17117 9.06732 3.13619 9.0021C3.10121 8.93688 3.09122 8.85907 3.10841 8.78576C3.46808 7.25155 4.28201 5.89245 5.42198 4.92255C6.56194 3.95266 7.96316 3.4271 9.40486 3.42868H12.6132L9.9359 0.48801C9.88712 0.434399 9.85971 0.361687 9.85971 0.285869C9.85971 0.210052 9.88712 0.13734 9.9359 0.0837293C9.98469 0.0301184 10.0509 1.49454e-09 10.1198 0C10.1888 -1.49454e-09 10.255 0.0301181 10.3038 0.083729L13.4237 3.51225C13.4479 3.53879 13.4671 3.5703 13.4802 3.60498C13.4933 3.63967 13.5 3.67685 13.5 3.7144C13.5 3.75194 13.4933 3.78912 13.4802 3.82381C13.4671 3.85849 13.4479 3.89 13.4237 3.91654ZM11.1598 11.4286H1.27999C1.21103 11.4286 1.1449 11.3985 1.09614 11.3449C1.04738 11.2913 1.01999 11.2186 1.01999 11.1429V2.57155C1.01999 2.49578 0.992599 2.42311 0.943841 2.36953C0.895082 2.31594 0.828951 2.28584 0.759996 2.28584C0.691041 2.28584 0.62491 2.31594 0.576151 2.36953C0.527392 2.42311 0.5 2.49578 0.5 2.57155V11.1429C0.5 11.3702 0.582177 11.5882 0.728453 11.749C0.874729 11.9097 1.07312 12 1.27999 12H11.1598C11.2288 12 11.2949 11.9699 11.3437 11.9163C11.3924 11.8627 11.4198 11.7901 11.4198 11.7143C11.4198 11.6385 11.3924 11.5658 11.3437 11.5123C11.2949 11.4587 11.2288 11.4286 11.1598 11.4286Z" fill="black"/>
</svg>
