<svg width="12" height="11" viewBox="0 0 12 11" fill="none" xmlns="http://www.w3.org/2000/svg">
<g clip-path="url(#clip0_103_171)">
<path d="M1.68482 2.92424C2.06287 1.0761 2.76887 0.663957 4.82738 0.938715C7.29826 0.0697747 7.87806 0.605729 8.84099 1.55323L8.85662 1.56861C10.3848 2.11597 11.1455 2.47546 10.8386 4.02656C11.8964 5.80416 11.4814 6.21053 10.751 6.92569L10.7331 6.94323C10.2914 9.44942 9.56491 10.0529 7.34186 9.901C5.32594 10.8474 4.247 10.7848 2.64689 8.89454C0.763308 8.08097 0.135665 7.43441 0.868372 5.45751C0.389676 4.4206 0.203222 3.83555 1.68482 2.92424Z" fill="#242424"/>
<path fill-rule="evenodd" clip-rule="evenodd" d="M4.85087 0.486729C7.03577 -0.264812 8.03624 -0.224915 9.17824 1.16643C11.1533 1.76983 11.6123 2.39049 11.3496 3.96845C12.3917 5.73269 12.0442 6.24241 11.2498 7.06176C10.5506 10.137 9.58126 10.4967 7.49793 10.3007C4.9901 11.6017 3.96164 10.9815 2.32657 9.16328C0.145061 8.24455 -0.344281 7.44489 0.331692 5.41801C-0.261347 4.23576 -0.123952 3.61857 1.27543 2.62986C1.76441 0.726724 2.43555 0.12622 4.85087 0.486729ZM8.97026 1.43868C7.90113 0.137708 6.96451 0.100402 4.91905 0.803134C2.65786 0.466039 2.02955 1.02754 1.57177 2.80707C0.261687 3.73158 0.13306 4.30868 0.688253 5.41414C0.0554189 7.30939 0.513534 8.0571 2.55583 8.91616C4.08657 10.6163 5.04939 11.1962 7.39719 9.97975C9.34756 10.163 10.2551 9.82668 10.9097 6.95114C11.6534 6.185 11.9787 5.70839 11.003 4.05872C11.249 2.58327 10.8193 2.0029 8.97026 1.43868Z" fill="#242424"/>
<path fill-rule="evenodd" clip-rule="evenodd" d="M4.919 0.803141C6.96447 0.100409 7.90108 0.137715 8.97022 1.43869C10.8193 2.00291 11.2489 2.58327 11.003 4.05873C11.9786 5.7084 11.6533 6.185 10.9096 6.95115C10.255 9.82668 9.34751 10.163 7.39714 9.97975C5.04935 11.1962 4.08652 10.6163 2.55579 8.91616C0.51349 8.05711 0.0553752 7.3094 0.68821 5.41414C0.133016 4.30869 0.261643 3.73159 1.57173 2.80707C2.02951 1.02755 2.65782 0.466046 4.919 0.803141ZM4.919 1.13389C2.95694 0.873634 2.28402 1.26403 1.92368 3.0146C0.5115 3.8778 0.655741 4.43197 1.11201 5.41414C0.413631 7.28668 1.01187 7.89912 2.8072 8.66974C4.33234 10.4602 5.36073 10.5195 7.28221 9.62306C9.4011 9.76699 10.0936 9.19533 10.5146 6.82144L10.5316 6.80482C11.2278 6.12741 11.6234 5.74249 10.6151 4.05873C10.9076 2.58951 10.1826 2.249 8.726 1.73053L8.7111 1.71596C7.79328 0.81848 7.27412 0.310818 4.919 1.13389Z" fill="#242424"/>
<path d="M3.31453 5.82702C2.95859 5.82702 2.78767 6.08315 3.1202 6.19792C3.55891 6.34934 4.40696 6.47793 6.02064 6.47793C7.59253 6.47793 9.32988 6.28714 9.32988 5.87471C9.32988 5.42477 7.72661 5.38788 6.35004 5.35621C5.31457 5.33238 4.40738 5.3115 4.40738 5.11999C4.40738 4.90676 5.22642 4.84503 6.08683 4.84503C6.4949 4.84503 6.87692 4.85892 7.16581 4.90106C7.51722 4.95231 7.98036 5.16488 8.3363 5.16488H8.62096C8.96966 5.16488 9.17133 4.89547 8.85 4.773C8.30304 4.56451 7.25242 4.49432 6.08683 4.49432C4.05164 4.49432 2.77759 4.71036 2.77759 5.08913C2.77759 5.59079 4.41837 5.6167 5.81325 5.63871C6.84456 5.655 7.74144 5.66916 7.74144 5.8719C7.74144 6.03463 7.02996 6.1188 6.01237 6.1188C5.5918 6.1188 5.20128 6.10622 4.90367 6.0697C4.54292 6.02543 4.03972 5.82702 3.67567 5.82702H3.31453Z" fill="white"/>
</g>
<defs>
<clipPath id="clip0_103_171">
<rect width="12" height="11" fill="white"/>
</clipPath>
</defs>
</svg>
