<svg width="14" height="13" viewBox="0 0 14 13" fill="none" xmlns="http://www.w3.org/2000/svg">
<path d="M13.5 6.5C13.5 2.91015 10.5899 0 7 0V6.5H10.25H13.5Z" fill="#F8F7F7" fill-opacity="0.8"/>
<path d="M12.3349 10.2143L7 6.5L8.2381 12.8822C9.92839 12.5563 11.3855 11.5755 12.3349 10.2143Z" fill="#15793A"/>
<path fill-rule="evenodd" clip-rule="evenodd" d="M7 13C7.42337 13 7.83729 12.9595 8.2381 12.8822L7 6.5V0C3.41015 0 0.5 2.91015 0.5 6.5C0.5 10.0899 3.41015 13 7 13Z" fill="#26B426"/>
<path d="M10.25 6.5H7L12.3349 10.2143C13.0693 9.16144 13.5 7.88102 13.5 6.5H10.25Z" fill="#15793A"/>
<path d="M12.2651 10.2266C11.3317 11.543 9.91699 12.4941 8.27763 12.8235L7.07255 6.61143L12.2651 10.2266ZM12.3223 10.1446L7.15932 6.55H10.25H13.4498C13.4397 7.88347 13.025 9.12051 12.3223 10.1446ZM7.05 0.0501898C10.5726 0.0769346 13.4231 2.92743 13.4498 6.45H10.25H7.05V0.0501898ZM6.95 0.0501898V6.40426L6.92745 6.38857L6.93937 6.45H6.84068L6.95 6.52611V6.55H6.95877L8.17944 12.8424C7.79709 12.9131 7.40288 12.95 7 12.95C3.43776 12.95 0.55 10.0622 0.55 6.5C0.55 2.95445 3.41078 0.077061 6.95 0.0501898Z" stroke="black" stroke-width="0.1"/>
</svg>
