<svg width="139" height="31" viewBox="0 0 139 31" fill="none" xmlns="http://www.w3.org/2000/svg">
<path fill-rule="evenodd" clip-rule="evenodd" d="M26.3823 15.6038L14.1812 14.7209C9.73858 14.3994 5.53541 15.3888 3.01299 17.3125C7.38568 16.7843 11.3659 17.0694 14.7847 17.3143C15.3904 17.3577 15.9784 17.3999 16.5479 17.436C20.5817 17.6918 23.8206 17.6788 27.0509 16.197C27.1873 16.1344 27.2145 16.0842 27.2229 16.0597C27.2335 16.0286 27.231 15.9801 27.1821 15.9163C27.0813 15.785 26.8145 15.6351 26.3823 15.6038ZM0.901963 17.2004C3.66185 14.6586 8.80122 13.3157 14.258 13.7105L26.4592 14.5935C28.6902 14.7549 29.908 16.2471 28.2424 17.0112C23.9463 18.982 19.5571 18.6701 14.6654 18.3225C11.0119 18.0629 7.078 17.7834 2.6932 18.4202C1.53917 18.5878 0.285951 17.7678 0.901963 17.2004Z" fill="black"/>
<path fill-rule="evenodd" clip-rule="evenodd" d="M16.7966 26.8649V13.9605C16.7966 9.79871 15.2756 5.96935 12.8285 3.9292C13.8237 8.14857 13.8271 12.0805 13.8301 15.4403C13.8307 16.1547 13.8313 16.8432 13.8414 17.5031C13.9001 21.3316 14.2435 24.4328 16.3071 27.4305C16.3767 27.5317 16.4224 27.5445 16.4394 27.5479C16.4638 27.5527 16.5055 27.5494 16.5605 27.5082C16.6736 27.4236 16.7966 27.2104 16.7966 26.8649ZM13.1901 2.23404C16.1361 4.53318 17.9787 9.04547 17.9787 13.9605V26.8649C17.9787 28.8928 16.4571 30.0955 15.4774 28.6723C12.6606 24.5804 12.6539 20.2242 12.6463 15.3583C12.641 11.9714 12.6354 8.33761 11.6815 4.37396C11.3705 3.08162 12.3682 1.59258 13.1901 2.23404Z" fill="black"/>
<path d="M41.7364 0.58896H43.195V10.1022L41.503 11.1013H37.2294L35.5375 10.1022V0.58896H36.9961V9.61018H41.7364V0.58896Z" fill="black"/>
<path d="M48.0093 3.13876V11.0267H46.5508V0.58896H47.8781L53.1581 8.47693H53.1873V0.58896H54.6458V11.0267H53.3185L48.0385 3.13876H48.0093Z" fill="black"/>
<path d="M58.0056 11.0267V0.58896H59.4642V11.0267H58.0056Z" fill="black"/>
<path d="M70.9033 0.58896L67.2569 11.0267H65.4483L61.8019 0.58896H63.2751L66.338 9.49089H66.3672L69.4302 0.58896H70.9033Z" fill="black"/>
<path d="M74.6965 6.32973V9.68473H79.0576V11.0267H73.2379V0.58896H79.0576V1.93096H74.6965V4.98773H78.1825V6.32973H74.6965Z" fill="black"/>
<path d="M85.4908 6.86653H83.2884V11.0267H81.8298V0.58896H87.066L88.758 1.588V5.86749L87.066 6.86653L89.4143 11.0267H87.7953L85.4908 6.86653ZM83.2884 1.93096V5.52453H87.2994V1.93096H83.2884Z" fill="black"/>
<path d="M92.1167 5.50962V1.51345L93.8086 0.514404H97.2071L98.899 1.51345V3.04929H97.4404V1.8564H93.5752V5.01756H97.2071L98.899 6.0166V10.1022L97.2071 11.1013H93.6627L91.9708 10.1022V8.5664H93.4294V9.75929H97.4404V6.50867H93.8086L92.1167 5.50962Z" fill="black"/>
<path d="M106.681 0.58896L110.327 11.0267H108.898L108.037 8.55149H103.516L102.655 11.0267H101.226L104.872 0.58896H106.681ZM105.762 2.06516L103.983 7.20949H107.571L105.791 2.06516H105.762Z" fill="black"/>
<path d="M112.662 11.0267V0.58896H114.12V9.68473H117.898V11.0267H112.662Z" fill="black"/>
<path d="M43.195 29.4121L41.503 30.4112H35.5375V19.9734H41.503L43.195 20.9724V29.4121ZM36.9961 21.3154V29.0692H41.7364V21.3154H36.9961Z" fill="black"/>
<path d="M50.9848 19.9734L54.6312 30.4112H53.2018L52.3413 27.9359H47.8197L46.9592 30.4112H45.5298L49.1762 19.9734H50.9848ZM50.0659 21.4496L48.2865 26.5939H51.8745L50.0951 21.4496H50.0659Z" fill="black"/>
<path d="M59.7254 21.3154V30.4112H58.2668V21.3154H55.3643V19.9734H62.6279V21.3154H59.7254Z" fill="black"/>
<path d="M68.8095 19.9734L72.4559 30.4112H71.0265L70.166 27.9359H65.6444L64.7839 30.4112H63.3545L67.0009 19.9734H68.8095ZM67.8906 21.4496L66.1112 26.5939H69.6992L67.9198 21.4496H67.8906Z" fill="black"/>
<path d="M79.3086 30.4112V19.9734H80.7672V29.0692H84.5449V30.4112H79.3086Z" fill="black"/>
<path d="M87.0174 30.4112V19.9734H88.4759V30.4112H87.0174Z" fill="black"/>
<path d="M97.596 27.8017H99.0545V29.4867L97.3626 30.4857H93.5266L91.8346 29.4867V20.8979L93.5266 19.8988H97.3626L99.0545 20.8979V22.5828H97.596V21.2408H93.2932V29.1437H97.596V27.8017Z" fill="black"/>
<path d="M103.723 25.7142V29.0692H108.084V30.4112H102.264V19.9734H108.084V21.3154H103.723V24.3722H107.208V25.7142H103.723Z" fill="black"/>
<path d="M112.314 22.5232V30.4112H110.856V19.9734H112.183L117.463 27.8614H117.492V19.9734H118.951V30.4112H117.624L112.344 22.5232H112.314Z" fill="black"/>
<path d="M122.311 24.8941V20.8979L124.003 19.8988H127.401L129.093 20.8979V22.4337H127.634V21.2408H123.769V24.402H127.401C127.401 24.402 128.59 24.8162 129.093 25.401C130.126 26.6022 129.093 29.4867 129.093 29.4867L127.401 30.4857H123.857L122.165 29.4867V27.9508H123.623V29.1437H127.634V25.8931H124.003L122.311 24.8941Z" fill="black"/>
<path d="M133.899 25.7142V29.0692H138.26V30.4112H132.441V19.9734H138.26V21.3154H133.899V24.3722H137.385V25.7142H133.899Z" fill="black"/>
</svg>
