<svg width="21" height="18" viewBox="0 0 21 18" fill="none" xmlns="http://www.w3.org/2000/svg">
<rect x="6.71973" y="0.705887" width="4.61176" height="4.61176" transform="rotate(45 6.71973 0.705887)" fill="#C8971B"/>
<rect x="7.8728" y="3.01176" width="4.61176" height="4.61176" transform="rotate(45 7.8728 3.01176)" fill="#FFBB0D"/>
<rect x="11.3317" y="0.705887" width="4.61176" height="4.61176" transform="rotate(45 11.3317 0.705887)" fill="#FFD467"/>
<rect x="12.4846" y="3.01176" width="4.61176" height="4.61176" transform="rotate(45 12.4846 3.01176)" fill="#FFBB0D"/>
<rect x="14.7904" y="0.705887" width="4.61176" height="4.61176" transform="rotate(45 14.7904 0.705887)" fill="#FFBB0D"/>
<rect x="17.0963" y="3.01176" width="4.61176" height="4.61176" transform="rotate(45 17.0963 3.01176)" fill="#FFBB0D"/>
<rect x="3.26086" y="2.85883" width="4.61176" height="4.61176" transform="rotate(45 3.26086 2.85883)" fill="#FFBB0D"/>
<rect x="17.0963" y="2.85883" width="4.61176" height="4.61176" transform="rotate(45 17.0963 2.85883)" fill="#BD993B"/>
<rect y="14" width="4" height="4" rx="2" fill="#FF7A41"/>
<rect x="17" y="14" width="4" height="4" rx="2" fill="#FF7A41"/>
<rect y="6" width="10" height="8" fill="#989898"/>
<rect x="10" y="6" width="11" height="8" fill="black"/>
</svg>
