<svg width="2284" height="2073" viewBox="0 0 2284 2073" fill="none" xmlns="http://www.w3.org/2000/svg">
<rect y="0.671875" width="2284" height="2071.67" rx="1000" fill="white"/>
<path d="M1591.13 1555.49C1591.13 1654.82 1670.79 1735.34 1769.07 1735.34C1867.34 1735.34 1947 1654.82 1947 1555.49C1947 1456.16 1867.34 1375.63 1769.07 1375.63C1670.79 1375.63 1591.13 1456.16 1591.13 1555.49Z" fill="white"/>
<path d="M337 1555.49C337 1654.82 416.664 1735.34 514.935 1735.34C613.206 1735.34 692.87 1654.82 692.87 1555.49C692.87 1456.16 613.206 1375.63 514.935 1375.63C416.664 1375.63 337 1456.16 337 1555.49Z" fill="white"/>
<path fill-rule="evenodd" clip-rule="evenodd" d="M1120.28 383.694L951.374 591.703L1090.68 808.041L1274.24 808.04L1416.35 595.582L1120.28 383.694ZM1457.52 534.044L1144.22 309.827C1123.15 294.751 1093.99 298.677 1077.66 318.786L909.214 526.23L781.979 328.641C762.914 299.035 719.778 298.603 700.124 327.82L375.504 810.388C332.29 820.085 300.002 858.684 300.001 904.825L300 1327.06C300 1364.47 324.007 1396.27 357.455 1407.9C321.773 1446.67 300 1498.59 300 1555.49C300 1674.88 395.856 1772.34 514.935 1772.34C634.014 1772.34 729.87 1674.88 729.87 1555.49C729.87 1500.87 709.809 1450.84 676.641 1412.63H1607.36C1574.19 1450.84 1554.13 1500.87 1554.13 1555.49C1554.13 1674.88 1649.99 1772.34 1769.07 1772.34C1888.14 1772.34 1984 1674.88 1984 1555.49C1984 1498.95 1962.5 1447.32 1927.22 1408.64C1960.17 1397.95 1984 1367 1984 1330.48V945.041C1984 870.617 1924.66 810.054 1850.71 808.09L1652.84 437.826C1626.51 388.54 1557.14 385.112 1526.07 431.559L1457.52 534.044ZM1847.24 882.041C1847.16 882.041 1847.08 882.041 1847 882.041L396.786 882.041C384.203 882.041 374.002 892.242 374.001 904.825L374 1327.06C374 1333.45 379.183 1338.63 385.576 1338.63H1901.85C1906.35 1338.63 1910 1334.98 1910 1330.48V945.041C1910 910.326 1881.92 882.168 1847.24 882.041ZM1766.78 808.04L1363.26 808.04L1587.58 472.702L1766.78 808.04ZM514.935 1412.63C592.397 1412.63 655.87 1476.21 655.87 1555.49C655.87 1634.76 592.398 1698.34 514.935 1698.34C437.472 1698.34 374 1634.76 374 1555.49C374 1476.21 437.473 1412.63 514.935 1412.63ZM466.268 808.041L1002.67 808.041L740.325 400.638L466.268 808.041ZM1769.07 1412.63C1691.6 1412.63 1628.13 1476.21 1628.13 1555.49C1628.13 1634.76 1691.6 1698.34 1769.07 1698.34C1846.53 1698.34 1910 1634.76 1910 1555.49C1910 1476.21 1846.53 1412.63 1769.07 1412.63Z" fill="black"/>
</svg>
